<mxfile host="Electron" agent="Mozilla/5.0 (Windows NT 10.0; Win64; x64) AppleWebKit/537.36 (KHTML, like Gecko) draw.io/26.0.16 Chrome/132.0.6834.196 Electron/34.2.0 Safari/537.36" version="26.0.16">
  <diagram name="Page-1" id="efa7a0a1-bf9b-a30e-e6df-94a7791c09e9">
    <mxGraphModel dx="2189" dy="1377" grid="1" gridSize="12" guides="1" tooltips="1" connect="1" arrows="1" fold="1" page="0" pageScale="1" pageWidth="1600" pageHeight="900" background="none" math="0" shadow="1">
      <root>
        <mxCell id="0" />
        <mxCell id="1" parent="0" />
        <mxCell id="qOrY5MYCo33ZCtALiVbq-77" value="PARTITE" style="shape=table;startSize=44;container=1;collapsible=1;childLayout=tableLayout;fixedRows=1;rowLines=0;fontStyle=1;align=center;resizeLast=1;html=1;rounded=1;fillStyle=auto;strokeColor=#d79b00;strokeWidth=2;verticalAlign=middle;swimlaneFillColor=none;fontFamily=Tahoma;fontSize=14;fontColor=default;labelBackgroundColor=#FFF2CC;autosize=1;fillColor=#ffe6cc;" parent="1" vertex="1">
          <mxGeometry x="-24" y="516" width="384" height="542" as="geometry" />
        </mxCell>
        <mxCell id="qOrY5MYCo33ZCtALiVbq-78" value="" style="shape=tableRow;horizontal=0;startSize=0;swimlaneHead=0;swimlaneBody=0;fillColor=none;collapsible=0;dropTarget=0;points=[[0,0.5],[1,0.5]];portConstraint=eastwest;top=0;left=0;right=0;bottom=1;rounded=1;fillStyle=auto;strokeColor=#d79b00;strokeWidth=2;align=center;verticalAlign=middle;swimlaneFillColor=none;fontFamily=Tahoma;fontSize=14;fontColor=default;fontStyle=1;labelBackgroundColor=#FFF2CC;autosize=1;" parent="qOrY5MYCo33ZCtALiVbq-77" vertex="1">
          <mxGeometry y="44" width="384" height="33" as="geometry" />
        </mxCell>
        <mxCell id="qOrY5MYCo33ZCtALiVbq-79" value="PK" style="shape=partialRectangle;connectable=0;fillColor=none;top=0;left=0;bottom=0;right=0;fontStyle=1;overflow=hidden;whiteSpace=wrap;html=1;rounded=1;fillStyle=auto;strokeColor=#d79b00;strokeWidth=2;align=center;verticalAlign=middle;swimlaneFillColor=none;fontFamily=Tahoma;fontSize=14;fontColor=default;labelBackgroundColor=#FFF2CC;autosize=1;" parent="qOrY5MYCo33ZCtALiVbq-78" vertex="1">
          <mxGeometry width="48" height="33" as="geometry">
            <mxRectangle width="48" height="33" as="alternateBounds" />
          </mxGeometry>
        </mxCell>
        <mxCell id="qOrY5MYCo33ZCtALiVbq-80" value="OID bigint not null" style="shape=partialRectangle;connectable=0;fillColor=none;top=0;left=0;bottom=0;right=0;align=left;spacingLeft=6;fontStyle=5;overflow=hidden;whiteSpace=wrap;html=1;rounded=1;fillStyle=auto;strokeColor=#d79b00;strokeWidth=2;verticalAlign=middle;swimlaneFillColor=none;fontFamily=Tahoma;fontSize=14;fontColor=default;labelBackgroundColor=#FFF2CC;autosize=1;" parent="qOrY5MYCo33ZCtALiVbq-78" vertex="1">
          <mxGeometry x="48" width="336" height="33" as="geometry">
            <mxRectangle width="336" height="33" as="alternateBounds" />
          </mxGeometry>
        </mxCell>
        <mxCell id="qOrY5MYCo33ZCtALiVbq-81" value="" style="shape=tableRow;horizontal=0;startSize=0;swimlaneHead=0;swimlaneBody=0;fillColor=none;collapsible=0;dropTarget=0;points=[[0,0.5],[1,0.5]];portConstraint=eastwest;top=0;left=0;right=0;bottom=0;rounded=1;fillStyle=auto;strokeColor=#d79b00;strokeWidth=2;align=center;verticalAlign=middle;swimlaneFillColor=none;fontFamily=Tahoma;fontSize=14;fontColor=default;fontStyle=1;labelBackgroundColor=#FFF2CC;autosize=1;" parent="qOrY5MYCo33ZCtALiVbq-77" vertex="1">
          <mxGeometry y="77" width="384" height="36" as="geometry" />
        </mxCell>
        <mxCell id="qOrY5MYCo33ZCtALiVbq-82" value="FK" style="shape=partialRectangle;connectable=0;fillColor=none;top=0;left=0;bottom=0;right=0;editable=1;overflow=hidden;whiteSpace=wrap;html=1;rounded=1;fillStyle=auto;strokeColor=#d79b00;strokeWidth=2;align=center;verticalAlign=middle;swimlaneFillColor=none;fontFamily=Tahoma;fontSize=14;fontColor=default;fontStyle=1;labelBackgroundColor=#FFF2CC;autosize=1;" parent="qOrY5MYCo33ZCtALiVbq-81" vertex="1">
          <mxGeometry width="48" height="36" as="geometry">
            <mxRectangle width="48" height="36" as="alternateBounds" />
          </mxGeometry>
        </mxCell>
        <mxCell id="qOrY5MYCo33ZCtALiVbq-83" value="&lt;span style=&quot;font-weight: normal;&quot;&gt;ID_PARTITA varchar(20) not null&lt;/span&gt;" style="shape=partialRectangle;connectable=0;fillColor=none;top=0;left=0;bottom=0;right=0;align=left;spacingLeft=6;overflow=hidden;whiteSpace=wrap;html=1;rounded=1;fillStyle=auto;strokeColor=#d79b00;strokeWidth=2;verticalAlign=middle;swimlaneFillColor=none;fontFamily=Tahoma;fontSize=14;fontColor=default;fontStyle=1;labelBackgroundColor=#FFF2CC;autosize=1;" parent="qOrY5MYCo33ZCtALiVbq-81" vertex="1">
          <mxGeometry x="48" width="336" height="36" as="geometry">
            <mxRectangle width="336" height="36" as="alternateBounds" />
          </mxGeometry>
        </mxCell>
        <mxCell id="qOrY5MYCo33ZCtALiVbq-84" value="" style="shape=tableRow;horizontal=0;startSize=0;swimlaneHead=0;swimlaneBody=0;fillColor=none;collapsible=0;dropTarget=0;points=[[0,0.5],[1,0.5]];portConstraint=eastwest;top=0;left=0;right=0;bottom=0;rounded=1;fillStyle=auto;strokeColor=#d79b00;strokeWidth=2;align=center;verticalAlign=middle;swimlaneFillColor=none;fontFamily=Tahoma;fontSize=14;fontColor=default;fontStyle=1;labelBackgroundColor=#FFF2CC;autosize=1;" parent="qOrY5MYCo33ZCtALiVbq-77" vertex="1">
          <mxGeometry y="113" width="384" height="33" as="geometry" />
        </mxCell>
        <mxCell id="qOrY5MYCo33ZCtALiVbq-85" value="" style="shape=partialRectangle;connectable=0;fillColor=none;top=0;left=0;bottom=0;right=0;editable=1;overflow=hidden;whiteSpace=wrap;html=1;rounded=1;fillStyle=auto;strokeColor=#d79b00;strokeWidth=2;align=center;verticalAlign=middle;swimlaneFillColor=none;fontFamily=Tahoma;fontSize=14;fontColor=default;fontStyle=1;labelBackgroundColor=#FFF2CC;autosize=1;" parent="qOrY5MYCo33ZCtALiVbq-84" vertex="1">
          <mxGeometry width="48" height="33" as="geometry">
            <mxRectangle width="48" height="33" as="alternateBounds" />
          </mxGeometry>
        </mxCell>
        <mxCell id="qOrY5MYCo33ZCtALiVbq-86" value="&lt;span style=&quot;font-weight: normal;&quot;&gt;DS_PARTITA varchar(30)&amp;nbsp;&lt;/span&gt;" style="shape=partialRectangle;connectable=0;fillColor=none;top=0;left=0;bottom=0;right=0;align=left;spacingLeft=6;overflow=hidden;whiteSpace=wrap;html=1;rounded=1;fillStyle=auto;strokeColor=#d79b00;strokeWidth=2;verticalAlign=middle;swimlaneFillColor=none;fontFamily=Tahoma;fontSize=14;fontColor=default;fontStyle=1;labelBackgroundColor=#FFF2CC;autosize=1;" parent="qOrY5MYCo33ZCtALiVbq-84" vertex="1">
          <mxGeometry x="48" width="336" height="33" as="geometry">
            <mxRectangle width="336" height="33" as="alternateBounds" />
          </mxGeometry>
        </mxCell>
        <mxCell id="qOrY5MYCo33ZCtALiVbq-87" value="" style="shape=tableRow;horizontal=0;startSize=0;swimlaneHead=0;swimlaneBody=0;fillColor=none;collapsible=0;dropTarget=0;points=[[0,0.5],[1,0.5]];portConstraint=eastwest;top=0;left=0;right=0;bottom=0;rounded=1;fillStyle=auto;strokeColor=#d79b00;strokeWidth=2;align=center;verticalAlign=middle;swimlaneFillColor=none;fontFamily=Tahoma;fontSize=14;fontColor=default;fontStyle=1;labelBackgroundColor=#FFF2CC;autosize=1;" parent="qOrY5MYCo33ZCtALiVbq-77" vertex="1">
          <mxGeometry y="146" width="384" height="33" as="geometry" />
        </mxCell>
        <mxCell id="qOrY5MYCo33ZCtALiVbq-88" value="" style="shape=partialRectangle;connectable=0;fillColor=none;top=0;left=0;bottom=0;right=0;editable=1;overflow=hidden;whiteSpace=wrap;html=1;rounded=1;fillStyle=auto;strokeColor=#d79b00;strokeWidth=2;align=center;verticalAlign=middle;swimlaneFillColor=none;fontFamily=Tahoma;fontSize=14;fontColor=default;fontStyle=1;labelBackgroundColor=#FFF2CC;autosize=1;" parent="qOrY5MYCo33ZCtALiVbq-87" vertex="1">
          <mxGeometry width="48" height="33" as="geometry">
            <mxRectangle width="48" height="33" as="alternateBounds" />
          </mxGeometry>
        </mxCell>
        <mxCell id="qOrY5MYCo33ZCtALiVbq-89" value="&lt;span style=&quot;font-weight: normal;&quot;&gt;DT_CREAZIONE date not null default sysdate&lt;/span&gt;" style="shape=partialRectangle;connectable=0;fillColor=none;top=0;left=0;bottom=0;right=0;align=left;spacingLeft=6;overflow=hidden;whiteSpace=wrap;html=1;rounded=1;fillStyle=auto;strokeColor=#d79b00;strokeWidth=2;verticalAlign=middle;swimlaneFillColor=none;fontFamily=Tahoma;fontSize=14;fontColor=default;fontStyle=1;labelBackgroundColor=#FFF2CC;autosize=1;" parent="qOrY5MYCo33ZCtALiVbq-87" vertex="1">
          <mxGeometry x="48" width="336" height="33" as="geometry">
            <mxRectangle width="336" height="33" as="alternateBounds" />
          </mxGeometry>
        </mxCell>
        <mxCell id="02ITlk-bv1gkPpf5R0bE-8" style="shape=tableRow;horizontal=0;startSize=0;swimlaneHead=0;swimlaneBody=0;fillColor=none;collapsible=0;dropTarget=0;points=[[0,0.5],[1,0.5]];portConstraint=eastwest;top=0;left=0;right=0;bottom=0;rounded=1;fillStyle=auto;strokeColor=#d79b00;strokeWidth=2;align=center;verticalAlign=middle;swimlaneFillColor=none;fontFamily=Tahoma;fontSize=14;fontColor=default;fontStyle=1;labelBackgroundColor=#FFF2CC;autosize=1;" parent="qOrY5MYCo33ZCtALiVbq-77" vertex="1">
          <mxGeometry y="179" width="384" height="35" as="geometry" />
        </mxCell>
        <mxCell id="02ITlk-bv1gkPpf5R0bE-9" style="shape=partialRectangle;connectable=0;fillColor=none;top=0;left=0;bottom=0;right=0;editable=1;overflow=hidden;whiteSpace=wrap;html=1;rounded=1;fillStyle=auto;strokeColor=#d79b00;strokeWidth=2;align=center;verticalAlign=middle;swimlaneFillColor=none;fontFamily=Tahoma;fontSize=14;fontColor=default;fontStyle=1;labelBackgroundColor=#FFF2CC;autosize=1;" parent="02ITlk-bv1gkPpf5R0bE-8" vertex="1">
          <mxGeometry width="48" height="35" as="geometry">
            <mxRectangle width="48" height="35" as="alternateBounds" />
          </mxGeometry>
        </mxCell>
        <mxCell id="02ITlk-bv1gkPpf5R0bE-10" value="&lt;span style=&quot;font-weight: normal;&quot;&gt;TP_PARTITA char(1) not null&lt;/span&gt;" style="shape=partialRectangle;connectable=0;fillColor=none;top=0;left=0;bottom=0;right=0;align=left;spacingLeft=6;overflow=hidden;whiteSpace=wrap;html=1;rounded=1;fillStyle=auto;strokeColor=#d79b00;strokeWidth=2;verticalAlign=middle;swimlaneFillColor=none;fontFamily=Tahoma;fontSize=14;fontColor=default;fontStyle=1;labelBackgroundColor=#FFF2CC;autosize=1;" parent="02ITlk-bv1gkPpf5R0bE-8" vertex="1">
          <mxGeometry x="48" width="336" height="35" as="geometry">
            <mxRectangle width="336" height="35" as="alternateBounds" />
          </mxGeometry>
        </mxCell>
        <mxCell id="qOrY5MYCo33ZCtALiVbq-90" style="shape=tableRow;horizontal=0;startSize=0;swimlaneHead=0;swimlaneBody=0;fillColor=none;collapsible=0;dropTarget=0;points=[[0,0.5],[1,0.5]];portConstraint=eastwest;top=0;left=0;right=0;bottom=0;rounded=1;fillStyle=auto;strokeColor=#d79b00;strokeWidth=2;align=center;verticalAlign=middle;swimlaneFillColor=none;fontFamily=Tahoma;fontSize=14;fontColor=default;fontStyle=1;labelBackgroundColor=#FFF2CC;autosize=1;" parent="qOrY5MYCo33ZCtALiVbq-77" vertex="1">
          <mxGeometry y="214" width="384" height="41" as="geometry" />
        </mxCell>
        <mxCell id="qOrY5MYCo33ZCtALiVbq-91" value="FK" style="shape=partialRectangle;connectable=0;fillColor=none;top=0;left=0;bottom=0;right=0;editable=1;overflow=hidden;whiteSpace=wrap;html=1;rounded=1;fillStyle=auto;strokeColor=#d79b00;strokeWidth=2;align=center;verticalAlign=middle;swimlaneFillColor=none;fontFamily=Tahoma;fontSize=14;fontColor=default;fontStyle=1;labelBackgroundColor=#FFF2CC;autosize=1;" parent="qOrY5MYCo33ZCtALiVbq-90" vertex="1">
          <mxGeometry width="48" height="41" as="geometry">
            <mxRectangle width="48" height="41" as="alternateBounds" />
          </mxGeometry>
        </mxCell>
        <mxCell id="qOrY5MYCo33ZCtALiVbq-92" value="OID_UTENTE_CREAZIONE bigint not null" style="shape=partialRectangle;connectable=0;fillColor=none;top=0;left=0;bottom=0;right=0;align=left;spacingLeft=6;overflow=hidden;whiteSpace=wrap;html=1;rounded=1;fillStyle=auto;strokeColor=#d79b00;strokeWidth=2;verticalAlign=middle;swimlaneFillColor=none;fontFamily=Tahoma;fontSize=14;fontColor=default;fontStyle=0;labelBackgroundColor=#FFF2CC;autosize=1;" parent="qOrY5MYCo33ZCtALiVbq-90" vertex="1">
          <mxGeometry x="48" width="336" height="41" as="geometry">
            <mxRectangle width="336" height="41" as="alternateBounds" />
          </mxGeometry>
        </mxCell>
        <mxCell id="qOrY5MYCo33ZCtALiVbq-105" style="shape=tableRow;horizontal=0;startSize=0;swimlaneHead=0;swimlaneBody=0;fillColor=none;collapsible=0;dropTarget=0;points=[[0,0.5],[1,0.5]];portConstraint=eastwest;top=0;left=0;right=0;bottom=0;rounded=1;fillStyle=auto;strokeColor=#d79b00;strokeWidth=2;align=center;verticalAlign=middle;swimlaneFillColor=none;fontFamily=Tahoma;fontSize=14;fontColor=default;fontStyle=1;labelBackgroundColor=#FFF2CC;autosize=1;" parent="qOrY5MYCo33ZCtALiVbq-77" vertex="1">
          <mxGeometry y="255" width="384" height="41" as="geometry" />
        </mxCell>
        <mxCell id="qOrY5MYCo33ZCtALiVbq-106" style="shape=partialRectangle;connectable=0;fillColor=none;top=0;left=0;bottom=0;right=0;editable=1;overflow=hidden;whiteSpace=wrap;html=1;rounded=1;fillStyle=auto;strokeColor=#d79b00;strokeWidth=2;align=center;verticalAlign=middle;swimlaneFillColor=none;fontFamily=Tahoma;fontSize=14;fontColor=default;fontStyle=1;labelBackgroundColor=#FFF2CC;autosize=1;" parent="qOrY5MYCo33ZCtALiVbq-105" vertex="1">
          <mxGeometry width="48" height="41" as="geometry">
            <mxRectangle width="48" height="41" as="alternateBounds" />
          </mxGeometry>
        </mxCell>
        <mxCell id="qOrY5MYCo33ZCtALiVbq-107" value="DS_PASSWORD varchar(80)&amp;nbsp;" style="shape=partialRectangle;connectable=0;fillColor=none;top=0;left=0;bottom=0;right=0;align=left;spacingLeft=6;overflow=hidden;whiteSpace=wrap;html=1;rounded=1;fillStyle=auto;strokeColor=#d79b00;strokeWidth=2;verticalAlign=middle;swimlaneFillColor=none;fontFamily=Tahoma;fontSize=14;fontColor=default;fontStyle=0;labelBackgroundColor=#FFF2CC;autosize=1;" parent="qOrY5MYCo33ZCtALiVbq-105" vertex="1">
          <mxGeometry x="48" width="336" height="41" as="geometry">
            <mxRectangle width="336" height="41" as="alternateBounds" />
          </mxGeometry>
        </mxCell>
        <mxCell id="qOrY5MYCo33ZCtALiVbq-120" style="shape=tableRow;horizontal=0;startSize=0;swimlaneHead=0;swimlaneBody=0;fillColor=none;collapsible=0;dropTarget=0;points=[[0,0.5],[1,0.5]];portConstraint=eastwest;top=0;left=0;right=0;bottom=0;rounded=1;fillStyle=auto;strokeColor=#d79b00;strokeWidth=2;align=center;verticalAlign=middle;swimlaneFillColor=none;fontFamily=Tahoma;fontSize=14;fontColor=default;fontStyle=1;labelBackgroundColor=#FFF2CC;autosize=1;" parent="qOrY5MYCo33ZCtALiVbq-77" vertex="1">
          <mxGeometry y="296" width="384" height="41" as="geometry" />
        </mxCell>
        <mxCell id="qOrY5MYCo33ZCtALiVbq-121" style="shape=partialRectangle;connectable=0;fillColor=none;top=0;left=0;bottom=0;right=0;editable=1;overflow=hidden;whiteSpace=wrap;html=1;rounded=1;fillStyle=auto;strokeColor=#d79b00;strokeWidth=2;align=center;verticalAlign=middle;swimlaneFillColor=none;fontFamily=Tahoma;fontSize=14;fontColor=default;fontStyle=1;labelBackgroundColor=#FFF2CC;autosize=1;" parent="qOrY5MYCo33ZCtALiVbq-120" vertex="1">
          <mxGeometry width="48" height="41" as="geometry">
            <mxRectangle width="48" height="41" as="alternateBounds" />
          </mxGeometry>
        </mxCell>
        <mxCell id="qOrY5MYCo33ZCtALiVbq-122" value="NM_PARTECIPANTI_TOTALI int not null default 1" style="shape=partialRectangle;connectable=0;fillColor=none;top=0;left=0;bottom=0;right=0;align=left;spacingLeft=6;overflow=hidden;whiteSpace=wrap;html=1;rounded=1;fillStyle=auto;strokeColor=#d79b00;strokeWidth=2;verticalAlign=middle;swimlaneFillColor=none;fontFamily=Tahoma;fontSize=14;fontColor=default;fontStyle=0;labelBackgroundColor=#FFF2CC;autosize=1;" parent="qOrY5MYCo33ZCtALiVbq-120" vertex="1">
          <mxGeometry x="48" width="336" height="41" as="geometry">
            <mxRectangle width="336" height="41" as="alternateBounds" />
          </mxGeometry>
        </mxCell>
        <mxCell id="qOrY5MYCo33ZCtALiVbq-117" style="shape=tableRow;horizontal=0;startSize=0;swimlaneHead=0;swimlaneBody=0;fillColor=none;collapsible=0;dropTarget=0;points=[[0,0.5],[1,0.5]];portConstraint=eastwest;top=0;left=0;right=0;bottom=0;rounded=1;fillStyle=auto;strokeColor=#d79b00;strokeWidth=2;align=center;verticalAlign=middle;swimlaneFillColor=none;fontFamily=Tahoma;fontSize=14;fontColor=default;fontStyle=1;labelBackgroundColor=#FFF2CC;autosize=1;" parent="qOrY5MYCo33ZCtALiVbq-77" vertex="1">
          <mxGeometry y="337" width="384" height="41" as="geometry" />
        </mxCell>
        <mxCell id="qOrY5MYCo33ZCtALiVbq-118" style="shape=partialRectangle;connectable=0;fillColor=none;top=0;left=0;bottom=0;right=0;editable=1;overflow=hidden;whiteSpace=wrap;html=1;rounded=1;fillStyle=auto;strokeColor=#d79b00;strokeWidth=2;align=center;verticalAlign=middle;swimlaneFillColor=none;fontFamily=Tahoma;fontSize=14;fontColor=default;fontStyle=1;labelBackgroundColor=#FFF2CC;autosize=1;" parent="qOrY5MYCo33ZCtALiVbq-117" vertex="1">
          <mxGeometry width="48" height="41" as="geometry">
            <mxRectangle width="48" height="41" as="alternateBounds" />
          </mxGeometry>
        </mxCell>
        <mxCell id="qOrY5MYCo33ZCtALiVbq-119" value="NM_PARTECIPANTI_REALI int default 1" style="shape=partialRectangle;connectable=0;fillColor=none;top=0;left=0;bottom=0;right=0;align=left;spacingLeft=6;overflow=hidden;whiteSpace=wrap;html=1;rounded=1;fillStyle=auto;strokeColor=#d79b00;strokeWidth=2;verticalAlign=middle;swimlaneFillColor=none;fontFamily=Tahoma;fontSize=14;fontColor=default;fontStyle=0;labelBackgroundColor=#FFF2CC;autosize=1;" parent="qOrY5MYCo33ZCtALiVbq-117" vertex="1">
          <mxGeometry x="48" width="336" height="41" as="geometry">
            <mxRectangle width="336" height="41" as="alternateBounds" />
          </mxGeometry>
        </mxCell>
        <mxCell id="qOrY5MYCo33ZCtALiVbq-114" style="shape=tableRow;horizontal=0;startSize=0;swimlaneHead=0;swimlaneBody=0;fillColor=none;collapsible=0;dropTarget=0;points=[[0,0.5],[1,0.5]];portConstraint=eastwest;top=0;left=0;right=0;bottom=0;rounded=1;fillStyle=auto;strokeColor=#d79b00;strokeWidth=2;align=center;verticalAlign=middle;swimlaneFillColor=none;fontFamily=Tahoma;fontSize=14;fontColor=default;fontStyle=1;labelBackgroundColor=#FFF2CC;autosize=1;" parent="qOrY5MYCo33ZCtALiVbq-77" vertex="1">
          <mxGeometry y="378" width="384" height="41" as="geometry" />
        </mxCell>
        <mxCell id="qOrY5MYCo33ZCtALiVbq-115" style="shape=partialRectangle;connectable=0;fillColor=none;top=0;left=0;bottom=0;right=0;editable=1;overflow=hidden;whiteSpace=wrap;html=1;rounded=1;fillStyle=auto;strokeColor=#d79b00;strokeWidth=2;align=center;verticalAlign=middle;swimlaneFillColor=none;fontFamily=Tahoma;fontSize=14;fontColor=default;fontStyle=1;labelBackgroundColor=#FFF2CC;autosize=1;" parent="qOrY5MYCo33ZCtALiVbq-114" vertex="1">
          <mxGeometry width="48" height="41" as="geometry">
            <mxRectangle width="48" height="41" as="alternateBounds" />
          </mxGeometry>
        </mxCell>
        <mxCell id="qOrY5MYCo33ZCtALiVbq-116" value="NM_DOMANDE int not null" style="shape=partialRectangle;connectable=0;fillColor=none;top=0;left=0;bottom=0;right=0;align=left;spacingLeft=6;overflow=hidden;whiteSpace=wrap;html=1;rounded=1;fillStyle=auto;strokeColor=#d79b00;strokeWidth=2;verticalAlign=middle;swimlaneFillColor=none;fontFamily=Tahoma;fontSize=14;fontColor=default;fontStyle=0;labelBackgroundColor=#FFF2CC;autosize=1;" parent="qOrY5MYCo33ZCtALiVbq-114" vertex="1">
          <mxGeometry x="48" width="336" height="41" as="geometry">
            <mxRectangle width="336" height="41" as="alternateBounds" />
          </mxGeometry>
        </mxCell>
        <mxCell id="TVsmqj7EBqzm4wI7fiK9-1" style="shape=tableRow;horizontal=0;startSize=0;swimlaneHead=0;swimlaneBody=0;fillColor=none;collapsible=0;dropTarget=0;points=[[0,0.5],[1,0.5]];portConstraint=eastwest;top=0;left=0;right=0;bottom=0;rounded=1;fillStyle=auto;strokeColor=#d79b00;strokeWidth=2;align=center;verticalAlign=middle;swimlaneFillColor=none;fontFamily=Tahoma;fontSize=14;fontColor=default;fontStyle=1;labelBackgroundColor=#FFF2CC;autosize=1;" parent="qOrY5MYCo33ZCtALiVbq-77" vertex="1">
          <mxGeometry y="419" width="384" height="41" as="geometry" />
        </mxCell>
        <mxCell id="TVsmqj7EBqzm4wI7fiK9-2" style="shape=partialRectangle;connectable=0;fillColor=none;top=0;left=0;bottom=0;right=0;editable=1;overflow=hidden;whiteSpace=wrap;html=1;rounded=1;fillStyle=auto;strokeColor=#d79b00;strokeWidth=2;align=center;verticalAlign=middle;swimlaneFillColor=none;fontFamily=Tahoma;fontSize=14;fontColor=default;fontStyle=1;labelBackgroundColor=#FFF2CC;autosize=1;" parent="TVsmqj7EBqzm4wI7fiK9-1" vertex="1">
          <mxGeometry width="48" height="41" as="geometry">
            <mxRectangle width="48" height="41" as="alternateBounds" />
          </mxGeometry>
        </mxCell>
        <mxCell id="TVsmqj7EBqzm4wI7fiK9-3" value="NM_TIMEOUT_RISPOSTA int not null default 20" style="shape=partialRectangle;connectable=0;fillColor=none;top=0;left=0;bottom=0;right=0;align=left;spacingLeft=6;overflow=hidden;whiteSpace=wrap;html=1;rounded=1;fillStyle=auto;strokeColor=#d79b00;strokeWidth=2;verticalAlign=middle;swimlaneFillColor=none;fontFamily=Tahoma;fontSize=14;fontColor=default;fontStyle=0;labelBackgroundColor=#FFF2CC;autosize=1;" parent="TVsmqj7EBqzm4wI7fiK9-1" vertex="1">
          <mxGeometry x="48" width="336" height="41" as="geometry">
            <mxRectangle width="336" height="41" as="alternateBounds" />
          </mxGeometry>
        </mxCell>
        <mxCell id="TVsmqj7EBqzm4wI7fiK9-4" style="shape=tableRow;horizontal=0;startSize=0;swimlaneHead=0;swimlaneBody=0;fillColor=none;collapsible=0;dropTarget=0;points=[[0,0.5],[1,0.5]];portConstraint=eastwest;top=0;left=0;right=0;bottom=0;rounded=1;fillStyle=auto;strokeColor=#d79b00;strokeWidth=2;align=center;verticalAlign=middle;swimlaneFillColor=none;fontFamily=Tahoma;fontSize=14;fontColor=default;fontStyle=1;labelBackgroundColor=#FFF2CC;autosize=1;" parent="qOrY5MYCo33ZCtALiVbq-77" vertex="1">
          <mxGeometry y="460" width="384" height="41" as="geometry" />
        </mxCell>
        <mxCell id="TVsmqj7EBqzm4wI7fiK9-5" style="shape=partialRectangle;connectable=0;fillColor=none;top=0;left=0;bottom=0;right=0;editable=1;overflow=hidden;whiteSpace=wrap;html=1;rounded=1;fillStyle=auto;strokeColor=#d79b00;strokeWidth=2;align=center;verticalAlign=middle;swimlaneFillColor=none;fontFamily=Tahoma;fontSize=14;fontColor=default;fontStyle=1;labelBackgroundColor=#FFF2CC;autosize=1;" parent="TVsmqj7EBqzm4wI7fiK9-4" vertex="1">
          <mxGeometry width="48" height="41" as="geometry">
            <mxRectangle width="48" height="41" as="alternateBounds" />
          </mxGeometry>
        </mxCell>
        <mxCell id="TVsmqj7EBqzm4wI7fiK9-6" value="FL_INIZIATA varchar(1) not null default &#39;N&#39;" style="shape=partialRectangle;connectable=0;fillColor=none;top=0;left=0;bottom=0;right=0;align=left;spacingLeft=6;overflow=hidden;whiteSpace=wrap;html=1;rounded=1;fillStyle=auto;strokeColor=#d79b00;strokeWidth=2;verticalAlign=middle;swimlaneFillColor=none;fontFamily=Tahoma;fontSize=14;fontColor=default;fontStyle=0;labelBackgroundColor=#FFF2CC;autosize=1;" parent="TVsmqj7EBqzm4wI7fiK9-4" vertex="1">
          <mxGeometry x="48" width="336" height="41" as="geometry">
            <mxRectangle width="336" height="41" as="alternateBounds" />
          </mxGeometry>
        </mxCell>
        <mxCell id="TVsmqj7EBqzm4wI7fiK9-10" style="shape=tableRow;horizontal=0;startSize=0;swimlaneHead=0;swimlaneBody=0;fillColor=none;collapsible=0;dropTarget=0;points=[[0,0.5],[1,0.5]];portConstraint=eastwest;top=0;left=0;right=0;bottom=0;rounded=1;fillStyle=auto;strokeColor=#d79b00;strokeWidth=2;align=center;verticalAlign=middle;swimlaneFillColor=none;fontFamily=Tahoma;fontSize=14;fontColor=default;fontStyle=1;labelBackgroundColor=#FFF2CC;autosize=1;" parent="qOrY5MYCo33ZCtALiVbq-77" vertex="1">
          <mxGeometry y="501" width="384" height="41" as="geometry" />
        </mxCell>
        <mxCell id="TVsmqj7EBqzm4wI7fiK9-11" style="shape=partialRectangle;connectable=0;fillColor=none;top=0;left=0;bottom=0;right=0;editable=1;overflow=hidden;whiteSpace=wrap;html=1;rounded=1;fillStyle=auto;strokeColor=#d79b00;strokeWidth=2;align=center;verticalAlign=middle;swimlaneFillColor=none;fontFamily=Tahoma;fontSize=14;fontColor=default;fontStyle=1;labelBackgroundColor=#FFF2CC;autosize=1;" parent="TVsmqj7EBqzm4wI7fiK9-10" vertex="1">
          <mxGeometry width="48" height="41" as="geometry">
            <mxRectangle width="48" height="41" as="alternateBounds" />
          </mxGeometry>
        </mxCell>
        <mxCell id="TVsmqj7EBqzm4wI7fiK9-12" value="DT_INIZIO date" style="shape=partialRectangle;connectable=0;fillColor=none;top=0;left=0;bottom=0;right=0;align=left;spacingLeft=6;overflow=hidden;whiteSpace=wrap;html=1;rounded=1;fillStyle=auto;strokeColor=#d79b00;strokeWidth=2;verticalAlign=middle;swimlaneFillColor=none;fontFamily=Tahoma;fontSize=14;fontColor=default;fontStyle=0;labelBackgroundColor=#FFF2CC;autosize=1;" parent="TVsmqj7EBqzm4wI7fiK9-10" vertex="1">
          <mxGeometry x="48" width="336" height="41" as="geometry">
            <mxRectangle width="336" height="41" as="alternateBounds" />
          </mxGeometry>
        </mxCell>
        <mxCell id="qOrY5MYCo33ZCtALiVbq-123" value="PARTITE_UTENTI" style="shape=table;startSize=44;container=1;collapsible=1;childLayout=tableLayout;fixedRows=1;rowLines=0;fontStyle=1;align=center;resizeLast=1;html=1;rounded=1;fillStyle=auto;strokeColor=#d79b00;strokeWidth=2;verticalAlign=middle;swimlaneFillColor=none;fontFamily=Tahoma;fontSize=14;fontColor=default;labelBackgroundColor=#FFF2CC;autosize=1;fillColor=#ffe6cc;" parent="1" vertex="1">
          <mxGeometry x="-408" y="444" width="264" height="148" as="geometry" />
        </mxCell>
        <mxCell id="qOrY5MYCo33ZCtALiVbq-124" value="" style="shape=tableRow;horizontal=0;startSize=0;swimlaneHead=0;swimlaneBody=0;fillColor=none;collapsible=0;dropTarget=0;points=[[0,0.5],[1,0.5]];portConstraint=eastwest;top=0;left=0;right=0;bottom=1;rounded=1;fillStyle=auto;strokeColor=#d79b00;strokeWidth=2;align=center;verticalAlign=middle;swimlaneFillColor=none;fontFamily=Tahoma;fontSize=14;fontColor=default;fontStyle=1;labelBackgroundColor=#FFF2CC;autosize=1;" parent="qOrY5MYCo33ZCtALiVbq-123" vertex="1">
          <mxGeometry y="44" width="264" height="33" as="geometry" />
        </mxCell>
        <mxCell id="qOrY5MYCo33ZCtALiVbq-125" value="PK" style="shape=partialRectangle;connectable=0;fillColor=none;top=0;left=0;bottom=0;right=0;fontStyle=1;overflow=hidden;whiteSpace=wrap;html=1;rounded=1;fillStyle=auto;strokeColor=#d79b00;strokeWidth=2;align=center;verticalAlign=middle;swimlaneFillColor=none;fontFamily=Tahoma;fontSize=14;fontColor=default;labelBackgroundColor=#FFF2CC;autosize=1;" parent="qOrY5MYCo33ZCtALiVbq-124" vertex="1">
          <mxGeometry width="48" height="33" as="geometry">
            <mxRectangle width="48" height="33" as="alternateBounds" />
          </mxGeometry>
        </mxCell>
        <mxCell id="qOrY5MYCo33ZCtALiVbq-126" value="OID bigint not null" style="shape=partialRectangle;connectable=0;fillColor=none;top=0;left=0;bottom=0;right=0;align=left;spacingLeft=6;fontStyle=5;overflow=hidden;whiteSpace=wrap;html=1;rounded=1;fillStyle=auto;strokeColor=#d79b00;strokeWidth=2;verticalAlign=middle;swimlaneFillColor=none;fontFamily=Tahoma;fontSize=14;fontColor=default;labelBackgroundColor=#FFF2CC;autosize=1;" parent="qOrY5MYCo33ZCtALiVbq-124" vertex="1">
          <mxGeometry x="48" width="216" height="33" as="geometry">
            <mxRectangle width="216" height="33" as="alternateBounds" />
          </mxGeometry>
        </mxCell>
        <mxCell id="qOrY5MYCo33ZCtALiVbq-127" value="" style="shape=tableRow;horizontal=0;startSize=0;swimlaneHead=0;swimlaneBody=0;fillColor=none;collapsible=0;dropTarget=0;points=[[0,0.5],[1,0.5]];portConstraint=eastwest;top=0;left=0;right=0;bottom=0;rounded=1;fillStyle=auto;strokeColor=#d79b00;strokeWidth=2;align=center;verticalAlign=middle;swimlaneFillColor=none;fontFamily=Tahoma;fontSize=14;fontColor=default;fontStyle=1;labelBackgroundColor=#FFF2CC;autosize=1;" parent="qOrY5MYCo33ZCtALiVbq-123" vertex="1">
          <mxGeometry y="77" width="264" height="35" as="geometry" />
        </mxCell>
        <mxCell id="qOrY5MYCo33ZCtALiVbq-128" value="FK" style="shape=partialRectangle;connectable=0;fillColor=none;top=0;left=0;bottom=0;right=0;editable=1;overflow=hidden;whiteSpace=wrap;html=1;rounded=1;fillStyle=auto;strokeColor=#d79b00;strokeWidth=2;align=center;verticalAlign=middle;swimlaneFillColor=none;fontFamily=Tahoma;fontSize=14;fontColor=default;fontStyle=1;labelBackgroundColor=#FFF2CC;autosize=1;" parent="qOrY5MYCo33ZCtALiVbq-127" vertex="1">
          <mxGeometry width="48" height="35" as="geometry">
            <mxRectangle width="48" height="35" as="alternateBounds" />
          </mxGeometry>
        </mxCell>
        <mxCell id="qOrY5MYCo33ZCtALiVbq-129" value="&lt;span style=&quot;font-weight: normal;&quot;&gt;OID_UTENTE bigint not null&lt;/span&gt;" style="shape=partialRectangle;connectable=0;fillColor=none;top=0;left=0;bottom=0;right=0;align=left;spacingLeft=6;overflow=hidden;whiteSpace=wrap;html=1;rounded=1;fillStyle=auto;strokeColor=#d79b00;strokeWidth=2;verticalAlign=middle;swimlaneFillColor=none;fontFamily=Tahoma;fontSize=14;fontColor=default;fontStyle=1;labelBackgroundColor=#FFF2CC;autosize=1;" parent="qOrY5MYCo33ZCtALiVbq-127" vertex="1">
          <mxGeometry x="48" width="216" height="35" as="geometry">
            <mxRectangle width="216" height="35" as="alternateBounds" />
          </mxGeometry>
        </mxCell>
        <mxCell id="qOrY5MYCo33ZCtALiVbq-130" value="" style="shape=tableRow;horizontal=0;startSize=0;swimlaneHead=0;swimlaneBody=0;fillColor=none;collapsible=0;dropTarget=0;points=[[0,0.5],[1,0.5]];portConstraint=eastwest;top=0;left=0;right=0;bottom=0;rounded=1;fillStyle=auto;strokeColor=#d79b00;strokeWidth=2;align=center;verticalAlign=middle;swimlaneFillColor=none;fontFamily=Tahoma;fontSize=14;fontColor=default;fontStyle=1;labelBackgroundColor=#FFF2CC;autosize=1;" parent="qOrY5MYCo33ZCtALiVbq-123" vertex="1">
          <mxGeometry y="112" width="264" height="36" as="geometry" />
        </mxCell>
        <mxCell id="qOrY5MYCo33ZCtALiVbq-131" value="FK" style="shape=partialRectangle;connectable=0;fillColor=none;top=0;left=0;bottom=0;right=0;editable=1;overflow=hidden;whiteSpace=wrap;html=1;rounded=1;fillStyle=auto;strokeColor=#d79b00;strokeWidth=2;align=center;verticalAlign=middle;swimlaneFillColor=none;fontFamily=Tahoma;fontSize=14;fontColor=default;fontStyle=1;labelBackgroundColor=#FFF2CC;autosize=1;" parent="qOrY5MYCo33ZCtALiVbq-130" vertex="1">
          <mxGeometry width="48" height="36" as="geometry">
            <mxRectangle width="48" height="36" as="alternateBounds" />
          </mxGeometry>
        </mxCell>
        <mxCell id="qOrY5MYCo33ZCtALiVbq-132" value="&lt;span style=&quot;font-weight: normal;&quot;&gt;OID_PARTITE bigint not null&lt;/span&gt;" style="shape=partialRectangle;connectable=0;fillColor=none;top=0;left=0;bottom=0;right=0;align=left;spacingLeft=6;overflow=hidden;whiteSpace=wrap;html=1;rounded=1;fillStyle=auto;strokeColor=#d79b00;strokeWidth=2;verticalAlign=middle;swimlaneFillColor=none;fontFamily=Tahoma;fontSize=14;fontColor=default;fontStyle=1;labelBackgroundColor=#FFF2CC;autosize=1;" parent="qOrY5MYCo33ZCtALiVbq-130" vertex="1">
          <mxGeometry x="48" width="216" height="36" as="geometry">
            <mxRectangle width="216" height="36" as="alternateBounds" />
          </mxGeometry>
        </mxCell>
        <mxCell id="Ae_wNL8d8pRHg8Wbe47M-1" value="" style="edgeStyle=entityRelationEdgeStyle;fontSize=12;html=1;endArrow=ERmany;rounded=0;exitX=0;exitY=0.5;exitDx=0;exitDy=0;" parent="1" source="snsSf5KUjU3tVVeuk6Za-121" target="qOrY5MYCo33ZCtALiVbq-127" edge="1">
          <mxGeometry width="100" height="100" relative="1" as="geometry">
            <mxPoint x="-96" y="496" as="sourcePoint" />
            <mxPoint x="4" y="396" as="targetPoint" />
          </mxGeometry>
        </mxCell>
        <mxCell id="Ae_wNL8d8pRHg8Wbe47M-2" value="" style="edgeStyle=entityRelationEdgeStyle;fontSize=12;html=1;endArrow=ERmany;rounded=0;exitX=0;exitY=0.5;exitDx=0;exitDy=0;entryX=1;entryY=0.5;entryDx=0;entryDy=0;" parent="1" source="qOrY5MYCo33ZCtALiVbq-78" target="qOrY5MYCo33ZCtALiVbq-130" edge="1">
          <mxGeometry width="100" height="100" relative="1" as="geometry">
            <mxPoint x="-96" y="496" as="sourcePoint" />
            <mxPoint x="4" y="396" as="targetPoint" />
          </mxGeometry>
        </mxCell>
        <mxCell id="snsSf5KUjU3tVVeuk6Za-120" value="UTENTI" style="shape=table;startSize=38;container=1;collapsible=1;childLayout=tableLayout;fixedRows=1;rowLines=0;fontStyle=1;align=center;resizeLast=1;html=1;strokeWidth=2;strokeColor=#d79b00;swimlaneLine=1;rounded=1;columnLines=1;resizeLastRow=0;fillColor=#ffe6cc;fillStyle=auto;swimlaneFillColor=none;autosize=1;resizeWidth=1;resizeHeight=1;fontSize=14;textShadow=1;labelBackgroundColor=#FFF2CC;fontFamily=Tahoma;" parent="1" vertex="1">
          <mxGeometry x="-84" y="94" width="410" height="108" as="geometry" />
        </mxCell>
        <mxCell id="snsSf5KUjU3tVVeuk6Za-121" value="" style="shape=tableRow;horizontal=0;startSize=0;swimlaneHead=0;swimlaneBody=0;fillColor=none;collapsible=0;dropTarget=0;points=[[0,0.5],[1,0.5]];portConstraint=eastwest;top=0;left=0;right=0;bottom=1;fontSize=14;labelBackgroundColor=#FFF2CC;fontFamily=Tahoma;textShadow=1;" parent="snsSf5KUjU3tVVeuk6Za-120" vertex="1">
          <mxGeometry y="38" width="410" height="34" as="geometry" />
        </mxCell>
        <mxCell id="snsSf5KUjU3tVVeuk6Za-122" value="PK" style="shape=partialRectangle;connectable=0;fillColor=none;top=0;left=0;bottom=0;right=0;fontStyle=1;overflow=hidden;whiteSpace=wrap;html=1;fontSize=14;textShadow=1;labelBackgroundColor=#FFF2CC;fontFamily=Tahoma;" parent="snsSf5KUjU3tVVeuk6Za-121" vertex="1">
          <mxGeometry width="44" height="34" as="geometry">
            <mxRectangle width="44" height="34" as="alternateBounds" />
          </mxGeometry>
        </mxCell>
        <mxCell id="snsSf5KUjU3tVVeuk6Za-123" value="OID bigint not null" style="shape=partialRectangle;connectable=0;fillColor=none;top=0;left=0;bottom=0;right=0;align=left;spacingLeft=6;fontStyle=5;overflow=hidden;whiteSpace=wrap;html=1;fontSize=14;textShadow=1;labelBackgroundColor=#FFF2CC;fontFamily=Tahoma;" parent="snsSf5KUjU3tVVeuk6Za-121" vertex="1">
          <mxGeometry x="44" width="366" height="34" as="geometry">
            <mxRectangle width="366" height="34" as="alternateBounds" />
          </mxGeometry>
        </mxCell>
        <mxCell id="snsSf5KUjU3tVVeuk6Za-124" value="" style="shape=tableRow;horizontal=0;startSize=0;swimlaneHead=0;swimlaneBody=0;fillColor=none;collapsible=0;dropTarget=0;points=[[0,0.5],[1,0.5]];portConstraint=eastwest;top=0;left=0;right=0;bottom=0;fontSize=14;labelBackgroundColor=#FFF2CC;fontFamily=Tahoma;textShadow=1;" parent="snsSf5KUjU3tVVeuk6Za-120" vertex="1">
          <mxGeometry y="72" width="410" height="30" as="geometry" />
        </mxCell>
        <mxCell id="snsSf5KUjU3tVVeuk6Za-125" value="" style="shape=partialRectangle;connectable=0;fillColor=none;top=0;left=0;bottom=0;right=0;editable=1;overflow=hidden;whiteSpace=wrap;html=1;fontSize=14;textShadow=1;labelBackgroundColor=#FFF2CC;fontFamily=Tahoma;" parent="snsSf5KUjU3tVVeuk6Za-124" vertex="1">
          <mxGeometry width="44" height="30" as="geometry">
            <mxRectangle width="44" height="30" as="alternateBounds" />
          </mxGeometry>
        </mxCell>
        <mxCell id="snsSf5KUjU3tVVeuk6Za-126" value="EXTERNAL_ID not null unique" style="shape=partialRectangle;connectable=0;fillColor=none;top=0;left=0;bottom=0;right=0;align=left;spacingLeft=6;overflow=hidden;whiteSpace=wrap;html=1;fontSize=14;textShadow=1;labelBackgroundColor=#FFF2CC;fontFamily=Tahoma;" parent="snsSf5KUjU3tVVeuk6Za-124" vertex="1">
          <mxGeometry x="44" width="366" height="30" as="geometry">
            <mxRectangle width="366" height="30" as="alternateBounds" />
          </mxGeometry>
        </mxCell>
        <mxCell id="TVsmqj7EBqzm4wI7fiK9-13" value="PARTITE_UTENTI_RISPOSTE" style="shape=table;startSize=44;container=1;collapsible=1;childLayout=tableLayout;fixedRows=1;rowLines=0;fontStyle=1;align=center;resizeLast=1;html=1;rounded=1;fillStyle=auto;strokeColor=#d79b00;strokeWidth=2;verticalAlign=middle;swimlaneFillColor=none;fontFamily=Tahoma;fontSize=14;fontColor=default;labelBackgroundColor=#FFF2CC;autosize=1;fillColor=#ffe6cc;" parent="1" vertex="1">
          <mxGeometry x="-408" y="708" width="300" height="255" as="geometry" />
        </mxCell>
        <mxCell id="TVsmqj7EBqzm4wI7fiK9-14" value="" style="shape=tableRow;horizontal=0;startSize=0;swimlaneHead=0;swimlaneBody=0;fillColor=none;collapsible=0;dropTarget=0;points=[[0,0.5],[1,0.5]];portConstraint=eastwest;top=0;left=0;right=0;bottom=1;rounded=1;fillStyle=auto;strokeColor=#d79b00;strokeWidth=2;align=center;verticalAlign=middle;swimlaneFillColor=none;fontFamily=Tahoma;fontSize=14;fontColor=default;fontStyle=1;labelBackgroundColor=#FFF2CC;autosize=1;" parent="TVsmqj7EBqzm4wI7fiK9-13" vertex="1">
          <mxGeometry y="44" width="300" height="33" as="geometry" />
        </mxCell>
        <mxCell id="TVsmqj7EBqzm4wI7fiK9-15" value="PK" style="shape=partialRectangle;connectable=0;fillColor=none;top=0;left=0;bottom=0;right=0;fontStyle=1;overflow=hidden;whiteSpace=wrap;html=1;rounded=1;fillStyle=auto;strokeColor=#d79b00;strokeWidth=2;align=center;verticalAlign=middle;swimlaneFillColor=none;fontFamily=Tahoma;fontSize=14;fontColor=default;labelBackgroundColor=#FFF2CC;autosize=1;" parent="TVsmqj7EBqzm4wI7fiK9-14" vertex="1">
          <mxGeometry width="48" height="33" as="geometry">
            <mxRectangle width="48" height="33" as="alternateBounds" />
          </mxGeometry>
        </mxCell>
        <mxCell id="TVsmqj7EBqzm4wI7fiK9-16" value="OID bigint not null" style="shape=partialRectangle;connectable=0;fillColor=none;top=0;left=0;bottom=0;right=0;align=left;spacingLeft=6;fontStyle=5;overflow=hidden;whiteSpace=wrap;html=1;rounded=1;fillStyle=auto;strokeColor=#d79b00;strokeWidth=2;verticalAlign=middle;swimlaneFillColor=none;fontFamily=Tahoma;fontSize=14;fontColor=default;labelBackgroundColor=#FFF2CC;autosize=1;" parent="TVsmqj7EBqzm4wI7fiK9-14" vertex="1">
          <mxGeometry x="48" width="252" height="33" as="geometry">
            <mxRectangle width="252" height="33" as="alternateBounds" />
          </mxGeometry>
        </mxCell>
        <mxCell id="TVsmqj7EBqzm4wI7fiK9-17" value="" style="shape=tableRow;horizontal=0;startSize=0;swimlaneHead=0;swimlaneBody=0;fillColor=none;collapsible=0;dropTarget=0;points=[[0,0.5],[1,0.5]];portConstraint=eastwest;top=0;left=0;right=0;bottom=0;rounded=1;fillStyle=auto;strokeColor=#d79b00;strokeWidth=2;align=center;verticalAlign=middle;swimlaneFillColor=none;fontFamily=Tahoma;fontSize=14;fontColor=default;fontStyle=1;labelBackgroundColor=#FFF2CC;autosize=1;" parent="TVsmqj7EBqzm4wI7fiK9-13" vertex="1">
          <mxGeometry y="77" width="300" height="35" as="geometry" />
        </mxCell>
        <mxCell id="TVsmqj7EBqzm4wI7fiK9-18" value="FK" style="shape=partialRectangle;connectable=0;fillColor=none;top=0;left=0;bottom=0;right=0;editable=1;overflow=hidden;whiteSpace=wrap;html=1;rounded=1;fillStyle=auto;strokeColor=#d79b00;strokeWidth=2;align=center;verticalAlign=middle;swimlaneFillColor=none;fontFamily=Tahoma;fontSize=14;fontColor=default;fontStyle=1;labelBackgroundColor=#FFF2CC;autosize=1;" parent="TVsmqj7EBqzm4wI7fiK9-17" vertex="1">
          <mxGeometry width="48" height="35" as="geometry">
            <mxRectangle width="48" height="35" as="alternateBounds" />
          </mxGeometry>
        </mxCell>
        <mxCell id="TVsmqj7EBqzm4wI7fiK9-19" value="&lt;span style=&quot;font-weight: normal;&quot;&gt;OID_PARTITE_UTENTI bigint not null&lt;/span&gt;" style="shape=partialRectangle;connectable=0;fillColor=none;top=0;left=0;bottom=0;right=0;align=left;spacingLeft=6;overflow=hidden;whiteSpace=wrap;html=1;rounded=1;fillStyle=auto;strokeColor=#d79b00;strokeWidth=2;verticalAlign=middle;swimlaneFillColor=none;fontFamily=Tahoma;fontSize=14;fontColor=default;fontStyle=1;labelBackgroundColor=#FFF2CC;autosize=1;" parent="TVsmqj7EBqzm4wI7fiK9-17" vertex="1">
          <mxGeometry x="48" width="252" height="35" as="geometry">
            <mxRectangle width="252" height="35" as="alternateBounds" />
          </mxGeometry>
        </mxCell>
        <mxCell id="_VB6UE8N2bxIzV9tyc8Q-1" style="shape=tableRow;horizontal=0;startSize=0;swimlaneHead=0;swimlaneBody=0;fillColor=none;collapsible=0;dropTarget=0;points=[[0,0.5],[1,0.5]];portConstraint=eastwest;top=0;left=0;right=0;bottom=0;rounded=1;fillStyle=auto;strokeColor=#d79b00;strokeWidth=2;align=center;verticalAlign=middle;swimlaneFillColor=none;fontFamily=Tahoma;fontSize=14;fontColor=default;fontStyle=1;labelBackgroundColor=#FFF2CC;autosize=1;" parent="TVsmqj7EBqzm4wI7fiK9-13" vertex="1">
          <mxGeometry y="112" width="300" height="36" as="geometry" />
        </mxCell>
        <mxCell id="_VB6UE8N2bxIzV9tyc8Q-2" value="FK" style="shape=partialRectangle;connectable=0;fillColor=none;top=0;left=0;bottom=0;right=0;editable=1;overflow=hidden;whiteSpace=wrap;html=1;rounded=1;fillStyle=auto;strokeColor=#d79b00;strokeWidth=2;align=center;verticalAlign=middle;swimlaneFillColor=none;fontFamily=Tahoma;fontSize=14;fontColor=default;fontStyle=1;labelBackgroundColor=#FFF2CC;autosize=1;" parent="_VB6UE8N2bxIzV9tyc8Q-1" vertex="1">
          <mxGeometry width="48" height="36" as="geometry">
            <mxRectangle width="48" height="36" as="alternateBounds" />
          </mxGeometry>
        </mxCell>
        <mxCell id="_VB6UE8N2bxIzV9tyc8Q-3" value="&lt;span style=&quot;font-weight: normal;&quot;&gt;OID_DOMANDA bigint not null&lt;/span&gt;" style="shape=partialRectangle;connectable=0;fillColor=none;top=0;left=0;bottom=0;right=0;align=left;spacingLeft=6;overflow=hidden;whiteSpace=wrap;html=1;rounded=1;fillStyle=auto;strokeColor=#d79b00;strokeWidth=2;verticalAlign=middle;swimlaneFillColor=none;fontFamily=Tahoma;fontSize=14;fontColor=default;fontStyle=1;labelBackgroundColor=#FFF2CC;autosize=1;" parent="_VB6UE8N2bxIzV9tyc8Q-1" vertex="1">
          <mxGeometry x="48" width="252" height="36" as="geometry">
            <mxRectangle width="252" height="36" as="alternateBounds" />
          </mxGeometry>
        </mxCell>
        <mxCell id="TVsmqj7EBqzm4wI7fiK9-20" value="" style="shape=tableRow;horizontal=0;startSize=0;swimlaneHead=0;swimlaneBody=0;fillColor=none;collapsible=0;dropTarget=0;points=[[0,0.5],[1,0.5]];portConstraint=eastwest;top=0;left=0;right=0;bottom=0;rounded=1;fillStyle=auto;strokeColor=#d79b00;strokeWidth=2;align=center;verticalAlign=middle;swimlaneFillColor=none;fontFamily=Tahoma;fontSize=14;fontColor=default;fontStyle=1;labelBackgroundColor=#FFF2CC;autosize=1;" parent="TVsmqj7EBqzm4wI7fiK9-13" vertex="1">
          <mxGeometry y="148" width="300" height="35" as="geometry" />
        </mxCell>
        <mxCell id="TVsmqj7EBqzm4wI7fiK9-21" value="FK" style="shape=partialRectangle;connectable=0;fillColor=none;top=0;left=0;bottom=0;right=0;editable=1;overflow=hidden;whiteSpace=wrap;html=1;rounded=1;fillStyle=auto;strokeColor=#d79b00;strokeWidth=2;align=center;verticalAlign=middle;swimlaneFillColor=none;fontFamily=Tahoma;fontSize=14;fontColor=default;fontStyle=1;labelBackgroundColor=#FFF2CC;autosize=1;" parent="TVsmqj7EBqzm4wI7fiK9-20" vertex="1">
          <mxGeometry width="48" height="35" as="geometry">
            <mxRectangle width="48" height="35" as="alternateBounds" />
          </mxGeometry>
        </mxCell>
        <mxCell id="TVsmqj7EBqzm4wI7fiK9-22" value="&lt;span style=&quot;font-weight: normal;&quot;&gt;OID_RISPOSTA bigint not null&lt;/span&gt;" style="shape=partialRectangle;connectable=0;fillColor=none;top=0;left=0;bottom=0;right=0;align=left;spacingLeft=6;overflow=hidden;whiteSpace=wrap;html=1;rounded=1;fillStyle=auto;strokeColor=#d79b00;strokeWidth=2;verticalAlign=middle;swimlaneFillColor=none;fontFamily=Tahoma;fontSize=14;fontColor=default;fontStyle=1;labelBackgroundColor=#FFF2CC;autosize=1;" parent="TVsmqj7EBqzm4wI7fiK9-20" vertex="1">
          <mxGeometry x="48" width="252" height="35" as="geometry">
            <mxRectangle width="252" height="35" as="alternateBounds" />
          </mxGeometry>
        </mxCell>
        <mxCell id="F6bltV3k6GI1ET0DTUvQ-23" style="shape=tableRow;horizontal=0;startSize=0;swimlaneHead=0;swimlaneBody=0;fillColor=none;collapsible=0;dropTarget=0;points=[[0,0.5],[1,0.5]];portConstraint=eastwest;top=0;left=0;right=0;bottom=0;rounded=1;fillStyle=auto;strokeColor=#d79b00;strokeWidth=2;align=center;verticalAlign=middle;swimlaneFillColor=none;fontFamily=Tahoma;fontSize=14;fontColor=default;fontStyle=1;labelBackgroundColor=#FFF2CC;autosize=1;" vertex="1" parent="TVsmqj7EBqzm4wI7fiK9-13">
          <mxGeometry y="183" width="300" height="36" as="geometry" />
        </mxCell>
        <mxCell id="F6bltV3k6GI1ET0DTUvQ-24" style="shape=partialRectangle;connectable=0;fillColor=none;top=0;left=0;bottom=0;right=0;editable=1;overflow=hidden;whiteSpace=wrap;html=1;rounded=1;fillStyle=auto;strokeColor=#d79b00;strokeWidth=2;align=center;verticalAlign=middle;swimlaneFillColor=none;fontFamily=Tahoma;fontSize=14;fontColor=default;fontStyle=1;labelBackgroundColor=#FFF2CC;autosize=1;" vertex="1" parent="F6bltV3k6GI1ET0DTUvQ-23">
          <mxGeometry width="48" height="36" as="geometry">
            <mxRectangle width="48" height="36" as="alternateBounds" />
          </mxGeometry>
        </mxCell>
        <mxCell id="F6bltV3k6GI1ET0DTUvQ-25" value="&lt;span style=&quot;font-weight: normal;&quot;&gt;FL_CORRETTA char(1) not null&lt;/span&gt;" style="shape=partialRectangle;connectable=0;fillColor=none;top=0;left=0;bottom=0;right=0;align=left;spacingLeft=6;overflow=hidden;whiteSpace=wrap;html=1;rounded=1;fillStyle=auto;strokeColor=#d79b00;strokeWidth=2;verticalAlign=middle;swimlaneFillColor=none;fontFamily=Tahoma;fontSize=14;fontColor=default;fontStyle=1;labelBackgroundColor=#FFF2CC;autosize=1;" vertex="1" parent="F6bltV3k6GI1ET0DTUvQ-23">
          <mxGeometry x="48" width="252" height="36" as="geometry">
            <mxRectangle width="252" height="36" as="alternateBounds" />
          </mxGeometry>
        </mxCell>
        <mxCell id="F6bltV3k6GI1ET0DTUvQ-26" style="shape=tableRow;horizontal=0;startSize=0;swimlaneHead=0;swimlaneBody=0;fillColor=none;collapsible=0;dropTarget=0;points=[[0,0.5],[1,0.5]];portConstraint=eastwest;top=0;left=0;right=0;bottom=0;rounded=1;fillStyle=auto;strokeColor=#d79b00;strokeWidth=2;align=center;verticalAlign=middle;swimlaneFillColor=none;fontFamily=Tahoma;fontSize=14;fontColor=default;fontStyle=1;labelBackgroundColor=#FFF2CC;autosize=1;" vertex="1" parent="TVsmqj7EBqzm4wI7fiK9-13">
          <mxGeometry y="219" width="300" height="36" as="geometry" />
        </mxCell>
        <mxCell id="F6bltV3k6GI1ET0DTUvQ-27" style="shape=partialRectangle;connectable=0;fillColor=none;top=0;left=0;bottom=0;right=0;editable=1;overflow=hidden;whiteSpace=wrap;html=1;rounded=1;fillStyle=auto;strokeColor=#d79b00;strokeWidth=2;align=center;verticalAlign=middle;swimlaneFillColor=none;fontFamily=Tahoma;fontSize=14;fontColor=default;fontStyle=1;labelBackgroundColor=#FFF2CC;autosize=1;" vertex="1" parent="F6bltV3k6GI1ET0DTUvQ-26">
          <mxGeometry width="48" height="36" as="geometry">
            <mxRectangle width="48" height="36" as="alternateBounds" />
          </mxGeometry>
        </mxCell>
        <mxCell id="F6bltV3k6GI1ET0DTUvQ-28" value="&lt;span style=&quot;font-weight: normal;&quot;&gt;DT_RISPOSTA date not null&lt;/span&gt;" style="shape=partialRectangle;connectable=0;fillColor=none;top=0;left=0;bottom=0;right=0;align=left;spacingLeft=6;overflow=hidden;whiteSpace=wrap;html=1;rounded=1;fillStyle=auto;strokeColor=#d79b00;strokeWidth=2;verticalAlign=middle;swimlaneFillColor=none;fontFamily=Tahoma;fontSize=14;fontColor=default;fontStyle=1;labelBackgroundColor=#FFF2CC;autosize=1;" vertex="1" parent="F6bltV3k6GI1ET0DTUvQ-26">
          <mxGeometry x="48" width="252" height="36" as="geometry">
            <mxRectangle width="252" height="36" as="alternateBounds" />
          </mxGeometry>
        </mxCell>
        <mxCell id="TVsmqj7EBqzm4wI7fiK9-26" value="CATEGORIE" style="shape=table;startSize=44;container=1;collapsible=1;childLayout=tableLayout;fixedRows=1;rowLines=0;fontStyle=1;align=center;resizeLast=1;html=1;rounded=1;fillStyle=auto;strokeColor=#d79b00;strokeWidth=2;verticalAlign=middle;swimlaneFillColor=none;fontFamily=Tahoma;fontSize=14;fontColor=default;labelBackgroundColor=#FFF2CC;autosize=1;fillColor=#ffe6cc;" parent="1" vertex="1">
          <mxGeometry x="732" y="48" width="312" height="187.0000000000009" as="geometry" />
        </mxCell>
        <mxCell id="TVsmqj7EBqzm4wI7fiK9-27" value="" style="shape=tableRow;horizontal=0;startSize=0;swimlaneHead=0;swimlaneBody=0;fillColor=none;collapsible=0;dropTarget=0;points=[[0,0.5],[1,0.5]];portConstraint=eastwest;top=0;left=0;right=0;bottom=1;rounded=1;fillStyle=auto;strokeColor=#d79b00;strokeWidth=2;align=center;verticalAlign=middle;swimlaneFillColor=none;fontFamily=Tahoma;fontSize=14;fontColor=default;fontStyle=1;labelBackgroundColor=#FFF2CC;autosize=1;" parent="TVsmqj7EBqzm4wI7fiK9-26" vertex="1">
          <mxGeometry y="44" width="312" height="40" as="geometry" />
        </mxCell>
        <mxCell id="TVsmqj7EBqzm4wI7fiK9-28" value="PK" style="shape=partialRectangle;connectable=0;fillColor=none;top=0;left=0;bottom=0;right=0;fontStyle=1;overflow=hidden;whiteSpace=wrap;html=1;rounded=1;fillStyle=auto;strokeColor=#d79b00;strokeWidth=2;align=center;verticalAlign=middle;swimlaneFillColor=none;fontFamily=Tahoma;fontSize=14;fontColor=default;labelBackgroundColor=#FFF2CC;autosize=1;" parent="TVsmqj7EBqzm4wI7fiK9-27" vertex="1">
          <mxGeometry width="36" height="40" as="geometry">
            <mxRectangle width="36" height="40" as="alternateBounds" />
          </mxGeometry>
        </mxCell>
        <mxCell id="TVsmqj7EBqzm4wI7fiK9-29" value="OID bigint not null" style="shape=partialRectangle;connectable=0;fillColor=none;top=0;left=0;bottom=0;right=0;align=left;spacingLeft=6;fontStyle=5;overflow=hidden;whiteSpace=wrap;html=1;rounded=1;fillStyle=auto;strokeColor=#d79b00;strokeWidth=2;verticalAlign=middle;swimlaneFillColor=none;fontFamily=Tahoma;fontSize=14;fontColor=default;labelBackgroundColor=#FFF2CC;autosize=1;" parent="TVsmqj7EBqzm4wI7fiK9-27" vertex="1">
          <mxGeometry x="36" width="276" height="40" as="geometry">
            <mxRectangle width="276" height="40" as="alternateBounds" />
          </mxGeometry>
        </mxCell>
        <mxCell id="TVsmqj7EBqzm4wI7fiK9-30" value="" style="shape=tableRow;horizontal=0;startSize=0;swimlaneHead=0;swimlaneBody=0;fillColor=none;collapsible=0;dropTarget=0;points=[[0,0.5],[1,0.5]];portConstraint=eastwest;top=0;left=0;right=0;bottom=0;rounded=1;fillStyle=auto;strokeColor=#d79b00;strokeWidth=2;align=center;verticalAlign=middle;swimlaneFillColor=none;fontFamily=Tahoma;fontSize=14;fontColor=default;fontStyle=1;labelBackgroundColor=#FFF2CC;autosize=1;" parent="TVsmqj7EBqzm4wI7fiK9-26" vertex="1">
          <mxGeometry y="84" width="312" height="33" as="geometry" />
        </mxCell>
        <mxCell id="TVsmqj7EBqzm4wI7fiK9-31" value="" style="shape=partialRectangle;connectable=0;fillColor=none;top=0;left=0;bottom=0;right=0;editable=1;overflow=hidden;whiteSpace=wrap;html=1;rounded=1;fillStyle=auto;strokeColor=#d79b00;strokeWidth=2;align=center;verticalAlign=middle;swimlaneFillColor=none;fontFamily=Tahoma;fontSize=14;fontColor=default;fontStyle=1;labelBackgroundColor=#FFF2CC;autosize=1;" parent="TVsmqj7EBqzm4wI7fiK9-30" vertex="1">
          <mxGeometry width="36" height="33" as="geometry">
            <mxRectangle width="36" height="33" as="alternateBounds" />
          </mxGeometry>
        </mxCell>
        <mxCell id="TVsmqj7EBqzm4wI7fiK9-32" value="&lt;span style=&quot;font-weight: normal;&quot;&gt;ID_CATEGORIA varchar(5) not null&lt;/span&gt;" style="shape=partialRectangle;connectable=0;fillColor=none;top=0;left=0;bottom=0;right=0;align=left;spacingLeft=6;overflow=hidden;whiteSpace=wrap;html=1;rounded=1;fillStyle=auto;strokeColor=#d79b00;strokeWidth=2;verticalAlign=middle;swimlaneFillColor=none;fontFamily=Tahoma;fontSize=14;fontColor=default;fontStyle=1;labelBackgroundColor=#FFF2CC;autosize=1;" parent="TVsmqj7EBqzm4wI7fiK9-30" vertex="1">
          <mxGeometry x="36" width="276" height="33" as="geometry">
            <mxRectangle width="276" height="33" as="alternateBounds" />
          </mxGeometry>
        </mxCell>
        <mxCell id="TVsmqj7EBqzm4wI7fiK9-33" value="" style="shape=tableRow;horizontal=0;startSize=0;swimlaneHead=0;swimlaneBody=0;fillColor=none;collapsible=0;dropTarget=0;points=[[0,0.5],[1,0.5]];portConstraint=eastwest;top=0;left=0;right=0;bottom=0;rounded=1;fillStyle=auto;strokeColor=#d79b00;strokeWidth=2;align=center;verticalAlign=middle;swimlaneFillColor=none;fontFamily=Tahoma;fontSize=14;fontColor=default;fontStyle=1;labelBackgroundColor=#FFF2CC;autosize=1;" parent="TVsmqj7EBqzm4wI7fiK9-26" vertex="1">
          <mxGeometry y="117" width="312" height="33" as="geometry" />
        </mxCell>
        <mxCell id="TVsmqj7EBqzm4wI7fiK9-34" value="" style="shape=partialRectangle;connectable=0;fillColor=none;top=0;left=0;bottom=0;right=0;editable=1;overflow=hidden;whiteSpace=wrap;html=1;rounded=1;fillStyle=auto;strokeColor=#d79b00;strokeWidth=2;align=center;verticalAlign=middle;swimlaneFillColor=none;fontFamily=Tahoma;fontSize=14;fontColor=default;fontStyle=1;labelBackgroundColor=#FFF2CC;autosize=1;" parent="TVsmqj7EBqzm4wI7fiK9-33" vertex="1">
          <mxGeometry width="36" height="33" as="geometry">
            <mxRectangle width="36" height="33" as="alternateBounds" />
          </mxGeometry>
        </mxCell>
        <mxCell id="TVsmqj7EBqzm4wI7fiK9-35" value="&lt;span style=&quot;font-weight: normal;&quot;&gt;DS_CATEGORIA varchar(30)&lt;/span&gt;" style="shape=partialRectangle;connectable=0;fillColor=none;top=0;left=0;bottom=0;right=0;align=left;spacingLeft=6;overflow=hidden;whiteSpace=wrap;html=1;rounded=1;fillStyle=auto;strokeColor=#d79b00;strokeWidth=2;verticalAlign=middle;swimlaneFillColor=none;fontFamily=Tahoma;fontSize=14;fontColor=default;fontStyle=1;labelBackgroundColor=#FFF2CC;autosize=1;" parent="TVsmqj7EBqzm4wI7fiK9-33" vertex="1">
          <mxGeometry x="36" width="276" height="33" as="geometry">
            <mxRectangle width="276" height="33" as="alternateBounds" />
          </mxGeometry>
        </mxCell>
        <mxCell id="TVsmqj7EBqzm4wI7fiK9-36" value="" style="shape=tableRow;horizontal=0;startSize=0;swimlaneHead=0;swimlaneBody=0;fillColor=none;collapsible=0;dropTarget=0;points=[[0,0.5],[1,0.5]];portConstraint=eastwest;top=0;left=0;right=0;bottom=0;rounded=1;fillStyle=auto;strokeColor=#d79b00;strokeWidth=2;align=center;verticalAlign=middle;swimlaneFillColor=none;fontFamily=Tahoma;fontSize=14;fontColor=default;fontStyle=1;labelBackgroundColor=#FFF2CC;autosize=1;" parent="TVsmqj7EBqzm4wI7fiK9-26" vertex="1">
          <mxGeometry y="150" width="312" height="37" as="geometry" />
        </mxCell>
        <mxCell id="TVsmqj7EBqzm4wI7fiK9-37" value="" style="shape=partialRectangle;connectable=0;fillColor=none;top=0;left=0;bottom=0;right=0;editable=1;overflow=hidden;whiteSpace=wrap;html=1;rounded=1;fillStyle=auto;strokeColor=#d79b00;strokeWidth=2;align=center;verticalAlign=middle;swimlaneFillColor=none;fontFamily=Tahoma;fontSize=14;fontColor=default;fontStyle=1;labelBackgroundColor=#FFF2CC;autosize=1;" parent="TVsmqj7EBqzm4wI7fiK9-36" vertex="1">
          <mxGeometry width="36" height="37" as="geometry">
            <mxRectangle width="36" height="37" as="alternateBounds" />
          </mxGeometry>
        </mxCell>
        <mxCell id="TVsmqj7EBqzm4wI7fiK9-38" value="&lt;span style=&quot;font-weight: normal;&quot;&gt;FL_ATTIVA varchar(1) not null default &#39;S&#39;&lt;/span&gt;" style="shape=partialRectangle;connectable=0;fillColor=none;top=0;left=0;bottom=0;right=0;align=left;spacingLeft=6;overflow=hidden;whiteSpace=wrap;html=1;rounded=1;fillStyle=auto;strokeColor=#d79b00;strokeWidth=2;verticalAlign=middle;swimlaneFillColor=none;fontFamily=Tahoma;fontSize=14;fontColor=default;fontStyle=1;labelBackgroundColor=#FFF2CC;autosize=1;" parent="TVsmqj7EBqzm4wI7fiK9-36" vertex="1">
          <mxGeometry x="36" width="276" height="37" as="geometry">
            <mxRectangle width="276" height="37" as="alternateBounds" />
          </mxGeometry>
        </mxCell>
        <mxCell id="m34MKxqJi3zST9WV0es3-1" value="DOMANDE" style="shape=table;startSize=44;container=1;collapsible=1;childLayout=tableLayout;fixedRows=1;rowLines=0;fontStyle=1;align=center;resizeLast=1;html=1;rounded=1;fillStyle=auto;strokeColor=#d79b00;strokeWidth=2;verticalAlign=middle;swimlaneFillColor=none;fontFamily=Tahoma;fontSize=14;fontColor=default;labelBackgroundColor=#FFF2CC;autosize=1;fillColor=#ffe6cc;" parent="1" vertex="1">
          <mxGeometry x="937" y="550" width="348" height="215" as="geometry" />
        </mxCell>
        <mxCell id="m34MKxqJi3zST9WV0es3-2" value="" style="shape=tableRow;horizontal=0;startSize=0;swimlaneHead=0;swimlaneBody=0;fillColor=none;collapsible=0;dropTarget=0;points=[[0,0.5],[1,0.5]];portConstraint=eastwest;top=0;left=0;right=0;bottom=1;rounded=1;fillStyle=auto;strokeColor=#d79b00;strokeWidth=2;align=center;verticalAlign=middle;swimlaneFillColor=none;fontFamily=Tahoma;fontSize=14;fontColor=default;fontStyle=1;labelBackgroundColor=#FFF2CC;autosize=1;" parent="m34MKxqJi3zST9WV0es3-1" vertex="1">
          <mxGeometry y="44" width="348" height="33" as="geometry" />
        </mxCell>
        <mxCell id="m34MKxqJi3zST9WV0es3-3" value="PK" style="shape=partialRectangle;connectable=0;fillColor=none;top=0;left=0;bottom=0;right=0;fontStyle=1;overflow=hidden;whiteSpace=wrap;html=1;rounded=1;fillStyle=auto;strokeColor=#d79b00;strokeWidth=2;align=center;verticalAlign=middle;swimlaneFillColor=none;fontFamily=Tahoma;fontSize=14;fontColor=default;labelBackgroundColor=#FFF2CC;autosize=1;" parent="m34MKxqJi3zST9WV0es3-2" vertex="1">
          <mxGeometry width="48" height="33" as="geometry">
            <mxRectangle width="48" height="33" as="alternateBounds" />
          </mxGeometry>
        </mxCell>
        <mxCell id="m34MKxqJi3zST9WV0es3-4" value="OID bigint not null" style="shape=partialRectangle;connectable=0;fillColor=none;top=0;left=0;bottom=0;right=0;align=left;spacingLeft=6;fontStyle=5;overflow=hidden;whiteSpace=wrap;html=1;rounded=1;fillStyle=auto;strokeColor=#d79b00;strokeWidth=2;verticalAlign=middle;swimlaneFillColor=none;fontFamily=Tahoma;fontSize=14;fontColor=default;labelBackgroundColor=#FFF2CC;autosize=1;" parent="m34MKxqJi3zST9WV0es3-2" vertex="1">
          <mxGeometry x="48" width="300" height="33" as="geometry">
            <mxRectangle width="300" height="33" as="alternateBounds" />
          </mxGeometry>
        </mxCell>
        <mxCell id="m34MKxqJi3zST9WV0es3-5" value="" style="shape=tableRow;horizontal=0;startSize=0;swimlaneHead=0;swimlaneBody=0;fillColor=none;collapsible=0;dropTarget=0;points=[[0,0.5],[1,0.5]];portConstraint=eastwest;top=0;left=0;right=0;bottom=0;rounded=1;fillStyle=auto;strokeColor=#d79b00;strokeWidth=2;align=center;verticalAlign=middle;swimlaneFillColor=none;fontFamily=Tahoma;fontSize=14;fontColor=default;fontStyle=1;labelBackgroundColor=#FFF2CC;autosize=1;" parent="m34MKxqJi3zST9WV0es3-1" vertex="1">
          <mxGeometry y="77" width="348" height="33" as="geometry" />
        </mxCell>
        <mxCell id="m34MKxqJi3zST9WV0es3-6" value="" style="shape=partialRectangle;connectable=0;fillColor=none;top=0;left=0;bottom=0;right=0;editable=1;overflow=hidden;whiteSpace=wrap;html=1;rounded=1;fillStyle=auto;strokeColor=#d79b00;strokeWidth=2;align=center;verticalAlign=middle;swimlaneFillColor=none;fontFamily=Tahoma;fontSize=14;fontColor=default;fontStyle=1;labelBackgroundColor=#FFF2CC;autosize=1;" parent="m34MKxqJi3zST9WV0es3-5" vertex="1">
          <mxGeometry width="48" height="33" as="geometry">
            <mxRectangle width="48" height="33" as="alternateBounds" />
          </mxGeometry>
        </mxCell>
        <mxCell id="m34MKxqJi3zST9WV0es3-7" value="&lt;span style=&quot;font-weight: normal;&quot;&gt;ID_DOMANDA varchar(10) not null&lt;/span&gt;" style="shape=partialRectangle;connectable=0;fillColor=none;top=0;left=0;bottom=0;right=0;align=left;spacingLeft=6;overflow=hidden;whiteSpace=wrap;html=1;rounded=1;fillStyle=auto;strokeColor=#d79b00;strokeWidth=2;verticalAlign=middle;swimlaneFillColor=none;fontFamily=Tahoma;fontSize=14;fontColor=default;fontStyle=1;labelBackgroundColor=#FFF2CC;autosize=1;" parent="m34MKxqJi3zST9WV0es3-5" vertex="1">
          <mxGeometry x="48" width="300" height="33" as="geometry">
            <mxRectangle width="300" height="33" as="alternateBounds" />
          </mxGeometry>
        </mxCell>
        <mxCell id="m34MKxqJi3zST9WV0es3-8" value="" style="shape=tableRow;horizontal=0;startSize=0;swimlaneHead=0;swimlaneBody=0;fillColor=none;collapsible=0;dropTarget=0;points=[[0,0.5],[1,0.5]];portConstraint=eastwest;top=0;left=0;right=0;bottom=0;rounded=1;fillStyle=auto;strokeColor=#d79b00;strokeWidth=2;align=center;verticalAlign=middle;swimlaneFillColor=none;fontFamily=Tahoma;fontSize=14;fontColor=default;fontStyle=1;labelBackgroundColor=#FFF2CC;autosize=1;" parent="m34MKxqJi3zST9WV0es3-1" vertex="1">
          <mxGeometry y="110" width="348" height="33" as="geometry" />
        </mxCell>
        <mxCell id="m34MKxqJi3zST9WV0es3-9" value="" style="shape=partialRectangle;connectable=0;fillColor=none;top=0;left=0;bottom=0;right=0;editable=1;overflow=hidden;whiteSpace=wrap;html=1;rounded=1;fillStyle=auto;strokeColor=#d79b00;strokeWidth=2;align=center;verticalAlign=middle;swimlaneFillColor=none;fontFamily=Tahoma;fontSize=14;fontColor=default;fontStyle=1;labelBackgroundColor=#FFF2CC;autosize=1;" parent="m34MKxqJi3zST9WV0es3-8" vertex="1">
          <mxGeometry width="48" height="33" as="geometry">
            <mxRectangle width="48" height="33" as="alternateBounds" />
          </mxGeometry>
        </mxCell>
        <mxCell id="m34MKxqJi3zST9WV0es3-10" value="&lt;span style=&quot;font-weight: normal;&quot;&gt;DS_DOMANDA varchar(255)&lt;/span&gt;" style="shape=partialRectangle;connectable=0;fillColor=none;top=0;left=0;bottom=0;right=0;align=left;spacingLeft=6;overflow=hidden;whiteSpace=wrap;html=1;rounded=1;fillStyle=auto;strokeColor=#d79b00;strokeWidth=2;verticalAlign=middle;swimlaneFillColor=none;fontFamily=Tahoma;fontSize=14;fontColor=default;fontStyle=1;labelBackgroundColor=#FFF2CC;autosize=1;" parent="m34MKxqJi3zST9WV0es3-8" vertex="1">
          <mxGeometry x="48" width="300" height="33" as="geometry">
            <mxRectangle width="300" height="33" as="alternateBounds" />
          </mxGeometry>
        </mxCell>
        <mxCell id="m34MKxqJi3zST9WV0es3-11" value="" style="shape=tableRow;horizontal=0;startSize=0;swimlaneHead=0;swimlaneBody=0;fillColor=none;collapsible=0;dropTarget=0;points=[[0,0.5],[1,0.5]];portConstraint=eastwest;top=0;left=0;right=0;bottom=0;rounded=1;fillStyle=auto;strokeColor=#d79b00;strokeWidth=2;align=center;verticalAlign=middle;swimlaneFillColor=none;fontFamily=Tahoma;fontSize=14;fontColor=default;fontStyle=1;labelBackgroundColor=#FFF2CC;autosize=1;" parent="m34MKxqJi3zST9WV0es3-1" vertex="1">
          <mxGeometry y="143" width="348" height="36" as="geometry" />
        </mxCell>
        <mxCell id="m34MKxqJi3zST9WV0es3-12" value="" style="shape=partialRectangle;connectable=0;fillColor=none;top=0;left=0;bottom=0;right=0;editable=1;overflow=hidden;whiteSpace=wrap;html=1;rounded=1;fillStyle=auto;strokeColor=#d79b00;strokeWidth=2;align=center;verticalAlign=middle;swimlaneFillColor=none;fontFamily=Tahoma;fontSize=14;fontColor=default;fontStyle=1;labelBackgroundColor=#FFF2CC;autosize=1;" parent="m34MKxqJi3zST9WV0es3-11" vertex="1">
          <mxGeometry width="48" height="36" as="geometry">
            <mxRectangle width="48" height="36" as="alternateBounds" />
          </mxGeometry>
        </mxCell>
        <mxCell id="m34MKxqJi3zST9WV0es3-13" value="&lt;span style=&quot;font-weight: normal;&quot;&gt;ID_DIFFICOLTA varchar(1) not null default &#39;F&#39;&lt;/span&gt;" style="shape=partialRectangle;connectable=0;fillColor=none;top=0;left=0;bottom=0;right=0;align=left;spacingLeft=6;overflow=hidden;whiteSpace=wrap;html=1;rounded=1;fillStyle=auto;strokeColor=#d79b00;strokeWidth=2;verticalAlign=middle;swimlaneFillColor=none;fontFamily=Tahoma;fontSize=14;fontColor=default;fontStyle=1;labelBackgroundColor=#FFF2CC;autosize=1;" parent="m34MKxqJi3zST9WV0es3-11" vertex="1">
          <mxGeometry x="48" width="300" height="36" as="geometry">
            <mxRectangle width="300" height="36" as="alternateBounds" />
          </mxGeometry>
        </mxCell>
        <mxCell id="m34MKxqJi3zST9WV0es3-14" style="shape=tableRow;horizontal=0;startSize=0;swimlaneHead=0;swimlaneBody=0;fillColor=none;collapsible=0;dropTarget=0;points=[[0,0.5],[1,0.5]];portConstraint=eastwest;top=0;left=0;right=0;bottom=0;rounded=1;fillStyle=auto;strokeColor=#d79b00;strokeWidth=2;align=center;verticalAlign=middle;swimlaneFillColor=none;fontFamily=Tahoma;fontSize=14;fontColor=default;fontStyle=1;labelBackgroundColor=#FFF2CC;autosize=1;" parent="m34MKxqJi3zST9WV0es3-1" vertex="1">
          <mxGeometry y="179" width="348" height="36" as="geometry" />
        </mxCell>
        <mxCell id="m34MKxqJi3zST9WV0es3-15" value="FK" style="shape=partialRectangle;connectable=0;fillColor=none;top=0;left=0;bottom=0;right=0;editable=1;overflow=hidden;whiteSpace=wrap;html=1;rounded=1;fillStyle=auto;strokeColor=#d79b00;strokeWidth=2;align=center;verticalAlign=middle;swimlaneFillColor=none;fontFamily=Tahoma;fontSize=14;fontColor=default;fontStyle=1;labelBackgroundColor=#FFF2CC;autosize=1;" parent="m34MKxqJi3zST9WV0es3-14" vertex="1">
          <mxGeometry width="48" height="36" as="geometry">
            <mxRectangle width="48" height="36" as="alternateBounds" />
          </mxGeometry>
        </mxCell>
        <mxCell id="m34MKxqJi3zST9WV0es3-16" value="&lt;span style=&quot;font-weight: normal;&quot;&gt;OID_CATEGORIA bigint not null&lt;/span&gt;" style="shape=partialRectangle;connectable=0;fillColor=none;top=0;left=0;bottom=0;right=0;align=left;spacingLeft=6;overflow=hidden;whiteSpace=wrap;html=1;rounded=1;fillStyle=auto;strokeColor=#d79b00;strokeWidth=2;verticalAlign=middle;swimlaneFillColor=none;fontFamily=Tahoma;fontSize=14;fontColor=default;fontStyle=1;labelBackgroundColor=#FFF2CC;autosize=1;" parent="m34MKxqJi3zST9WV0es3-14" vertex="1">
          <mxGeometry x="48" width="300" height="36" as="geometry">
            <mxRectangle width="300" height="36" as="alternateBounds" />
          </mxGeometry>
        </mxCell>
        <mxCell id="m34MKxqJi3zST9WV0es3-17" value="" style="edgeStyle=elbowEdgeStyle;fontSize=12;html=1;endArrow=ERoneToMany;rounded=0;fontFamily=Tahoma;fontColor=default;fontStyle=1;labelBackgroundColor=#FFF2CC;autosize=1;entryX=1;entryY=0.5;entryDx=0;entryDy=0;exitX=1;exitY=0.5;exitDx=0;exitDy=0;" parent="1" source="TVsmqj7EBqzm4wI7fiK9-27" target="m34MKxqJi3zST9WV0es3-14" edge="1">
          <mxGeometry width="100" height="100" relative="1" as="geometry">
            <mxPoint x="1188" y="96" as="sourcePoint" />
            <mxPoint x="1092" y="252" as="targetPoint" />
            <Array as="points">
              <mxPoint x="1320" y="420" />
            </Array>
          </mxGeometry>
        </mxCell>
        <mxCell id="m34MKxqJi3zST9WV0es3-19" value="PARTITE_DOMANDE" style="shape=table;startSize=36;container=1;collapsible=1;childLayout=tableLayout;fixedRows=1;rowLines=0;fontStyle=1;align=center;resizeLast=1;html=1;rounded=1;fillStyle=auto;strokeColor=#d79b00;strokeWidth=2;verticalAlign=middle;swimlaneFillColor=none;fontFamily=Tahoma;fontSize=14;fontColor=default;labelBackgroundColor=#FFF2CC;autosize=1;fillColor=#ffe6cc;" parent="1" vertex="1">
          <mxGeometry x="480" y="480" width="336" height="172" as="geometry" />
        </mxCell>
        <mxCell id="m34MKxqJi3zST9WV0es3-20" value="" style="shape=tableRow;horizontal=0;startSize=0;swimlaneHead=0;swimlaneBody=0;fillColor=none;collapsible=0;dropTarget=0;points=[[0,0.5],[1,0.5]];portConstraint=eastwest;top=0;left=0;right=0;bottom=1;rounded=1;fillStyle=auto;strokeColor=#d79b00;strokeWidth=2;align=center;verticalAlign=middle;swimlaneFillColor=none;fontFamily=Tahoma;fontSize=14;fontColor=default;fontStyle=1;labelBackgroundColor=#FFF2CC;autosize=1;" parent="m34MKxqJi3zST9WV0es3-19" vertex="1">
          <mxGeometry y="36" width="336" height="33" as="geometry" />
        </mxCell>
        <mxCell id="m34MKxqJi3zST9WV0es3-21" value="PK" style="shape=partialRectangle;connectable=0;fillColor=none;top=0;left=0;bottom=0;right=0;fontStyle=1;overflow=hidden;whiteSpace=wrap;html=1;rounded=1;fillStyle=auto;strokeColor=#d79b00;strokeWidth=2;align=center;verticalAlign=middle;swimlaneFillColor=none;fontFamily=Tahoma;fontSize=14;fontColor=default;labelBackgroundColor=#FFF2CC;autosize=1;" parent="m34MKxqJi3zST9WV0es3-20" vertex="1">
          <mxGeometry width="48" height="33" as="geometry">
            <mxRectangle width="48" height="33" as="alternateBounds" />
          </mxGeometry>
        </mxCell>
        <mxCell id="m34MKxqJi3zST9WV0es3-22" value="OID bigint not null" style="shape=partialRectangle;connectable=0;fillColor=none;top=0;left=0;bottom=0;right=0;align=left;spacingLeft=6;fontStyle=5;overflow=hidden;whiteSpace=wrap;html=1;rounded=1;fillStyle=auto;strokeColor=#d79b00;strokeWidth=2;verticalAlign=middle;swimlaneFillColor=none;fontFamily=Tahoma;fontSize=14;fontColor=default;labelBackgroundColor=#FFF2CC;autosize=1;" parent="m34MKxqJi3zST9WV0es3-20" vertex="1">
          <mxGeometry x="48" width="288" height="33" as="geometry">
            <mxRectangle width="288" height="33" as="alternateBounds" />
          </mxGeometry>
        </mxCell>
        <mxCell id="m34MKxqJi3zST9WV0es3-23" value="" style="shape=tableRow;horizontal=0;startSize=0;swimlaneHead=0;swimlaneBody=0;fillColor=none;collapsible=0;dropTarget=0;points=[[0,0.5],[1,0.5]];portConstraint=eastwest;top=0;left=0;right=0;bottom=0;rounded=1;fillStyle=auto;strokeColor=#d79b00;strokeWidth=2;align=center;verticalAlign=middle;swimlaneFillColor=none;fontFamily=Tahoma;fontSize=14;fontColor=default;fontStyle=1;labelBackgroundColor=#FFF2CC;autosize=1;" parent="m34MKxqJi3zST9WV0es3-19" vertex="1">
          <mxGeometry y="69" width="336" height="31" as="geometry" />
        </mxCell>
        <mxCell id="m34MKxqJi3zST9WV0es3-24" value="FK" style="shape=partialRectangle;connectable=0;fillColor=none;top=0;left=0;bottom=0;right=0;editable=1;overflow=hidden;whiteSpace=wrap;html=1;rounded=1;fillStyle=auto;strokeColor=#d79b00;strokeWidth=2;align=center;verticalAlign=middle;swimlaneFillColor=none;fontFamily=Tahoma;fontSize=14;fontColor=default;fontStyle=1;labelBackgroundColor=#FFF2CC;autosize=1;" parent="m34MKxqJi3zST9WV0es3-23" vertex="1">
          <mxGeometry width="48" height="31" as="geometry">
            <mxRectangle width="48" height="31" as="alternateBounds" />
          </mxGeometry>
        </mxCell>
        <mxCell id="m34MKxqJi3zST9WV0es3-25" value="&lt;span style=&quot;font-weight: normal;&quot;&gt;OID_PARTITA bigint not null&lt;/span&gt;" style="shape=partialRectangle;connectable=0;fillColor=none;top=0;left=0;bottom=0;right=0;align=left;spacingLeft=6;overflow=hidden;whiteSpace=wrap;html=1;rounded=1;fillStyle=auto;strokeColor=#d79b00;strokeWidth=2;verticalAlign=middle;swimlaneFillColor=none;fontFamily=Tahoma;fontSize=14;fontColor=default;fontStyle=1;labelBackgroundColor=#FFF2CC;autosize=1;" parent="m34MKxqJi3zST9WV0es3-23" vertex="1">
          <mxGeometry x="48" width="288" height="31" as="geometry">
            <mxRectangle width="288" height="31" as="alternateBounds" />
          </mxGeometry>
        </mxCell>
        <mxCell id="m34MKxqJi3zST9WV0es3-26" value="" style="shape=tableRow;horizontal=0;startSize=0;swimlaneHead=0;swimlaneBody=0;fillColor=none;collapsible=0;dropTarget=0;points=[[0,0.5],[1,0.5]];portConstraint=eastwest;top=0;left=0;right=0;bottom=0;rounded=1;fillStyle=auto;strokeColor=#d79b00;strokeWidth=2;align=center;verticalAlign=middle;swimlaneFillColor=none;fontFamily=Tahoma;fontSize=14;fontColor=default;fontStyle=1;labelBackgroundColor=#FFF2CC;autosize=1;" parent="m34MKxqJi3zST9WV0es3-19" vertex="1">
          <mxGeometry y="100" width="336" height="36" as="geometry" />
        </mxCell>
        <mxCell id="m34MKxqJi3zST9WV0es3-27" value="FK" style="shape=partialRectangle;connectable=0;fillColor=none;top=0;left=0;bottom=0;right=0;editable=1;overflow=hidden;whiteSpace=wrap;html=1;rounded=1;fillStyle=auto;strokeColor=#d79b00;strokeWidth=2;align=center;verticalAlign=middle;swimlaneFillColor=none;fontFamily=Tahoma;fontSize=14;fontColor=default;fontStyle=1;labelBackgroundColor=#FFF2CC;autosize=1;" parent="m34MKxqJi3zST9WV0es3-26" vertex="1">
          <mxGeometry width="48" height="36" as="geometry">
            <mxRectangle width="48" height="36" as="alternateBounds" />
          </mxGeometry>
        </mxCell>
        <mxCell id="m34MKxqJi3zST9WV0es3-28" value="&lt;span style=&quot;font-weight: normal;&quot;&gt;OID_DOMANDA bigint nut null&lt;/span&gt;" style="shape=partialRectangle;connectable=0;fillColor=none;top=0;left=0;bottom=0;right=0;align=left;spacingLeft=6;overflow=hidden;whiteSpace=wrap;html=1;rounded=1;fillStyle=auto;strokeColor=#d79b00;strokeWidth=2;verticalAlign=middle;swimlaneFillColor=none;fontFamily=Tahoma;fontSize=14;fontColor=default;fontStyle=1;labelBackgroundColor=#FFF2CC;autosize=1;" parent="m34MKxqJi3zST9WV0es3-26" vertex="1">
          <mxGeometry x="48" width="288" height="36" as="geometry">
            <mxRectangle width="288" height="36" as="alternateBounds" />
          </mxGeometry>
        </mxCell>
        <mxCell id="F6bltV3k6GI1ET0DTUvQ-20" style="shape=tableRow;horizontal=0;startSize=0;swimlaneHead=0;swimlaneBody=0;fillColor=none;collapsible=0;dropTarget=0;points=[[0,0.5],[1,0.5]];portConstraint=eastwest;top=0;left=0;right=0;bottom=0;rounded=1;fillStyle=auto;strokeColor=#d79b00;strokeWidth=2;align=center;verticalAlign=middle;swimlaneFillColor=none;fontFamily=Tahoma;fontSize=14;fontColor=default;fontStyle=1;labelBackgroundColor=#FFF2CC;autosize=1;" vertex="1" parent="m34MKxqJi3zST9WV0es3-19">
          <mxGeometry y="136" width="336" height="36" as="geometry" />
        </mxCell>
        <mxCell id="F6bltV3k6GI1ET0DTUvQ-21" style="shape=partialRectangle;connectable=0;fillColor=none;top=0;left=0;bottom=0;right=0;editable=1;overflow=hidden;whiteSpace=wrap;html=1;rounded=1;fillStyle=auto;strokeColor=#d79b00;strokeWidth=2;align=center;verticalAlign=middle;swimlaneFillColor=none;fontFamily=Tahoma;fontSize=14;fontColor=default;fontStyle=1;labelBackgroundColor=#FFF2CC;autosize=1;" vertex="1" parent="F6bltV3k6GI1ET0DTUvQ-20">
          <mxGeometry width="48" height="36" as="geometry">
            <mxRectangle width="48" height="36" as="alternateBounds" />
          </mxGeometry>
        </mxCell>
        <mxCell id="F6bltV3k6GI1ET0DTUvQ-22" value="&lt;span style=&quot;font-weight: normal;&quot;&gt;FL_PROPOSTA char(1) not null default &#39;N&#39;&lt;/span&gt;" style="shape=partialRectangle;connectable=0;fillColor=none;top=0;left=0;bottom=0;right=0;align=left;spacingLeft=6;overflow=hidden;whiteSpace=wrap;html=1;rounded=1;fillStyle=auto;strokeColor=#d79b00;strokeWidth=2;verticalAlign=middle;swimlaneFillColor=none;fontFamily=Tahoma;fontSize=14;fontColor=default;fontStyle=1;labelBackgroundColor=#FFF2CC;autosize=1;" vertex="1" parent="F6bltV3k6GI1ET0DTUvQ-20">
          <mxGeometry x="48" width="288" height="36" as="geometry">
            <mxRectangle width="288" height="36" as="alternateBounds" />
          </mxGeometry>
        </mxCell>
        <mxCell id="m34MKxqJi3zST9WV0es3-32" value="" style="edgeStyle=entityRelationEdgeStyle;fontSize=12;html=1;endArrow=ERmany;rounded=0;fontFamily=Tahoma;fontColor=default;fontStyle=1;labelBackgroundColor=#FFF2CC;autosize=1;exitX=1;exitY=0.5;exitDx=0;exitDy=0;entryX=0;entryY=0.5;entryDx=0;entryDy=0;" parent="1" source="qOrY5MYCo33ZCtALiVbq-78" target="m34MKxqJi3zST9WV0es3-23" edge="1">
          <mxGeometry width="100" height="100" relative="1" as="geometry">
            <mxPoint x="504" y="688" as="sourcePoint" />
            <mxPoint x="604" y="588" as="targetPoint" />
          </mxGeometry>
        </mxCell>
        <mxCell id="m34MKxqJi3zST9WV0es3-33" value="" style="edgeStyle=entityRelationEdgeStyle;fontSize=12;html=1;endArrow=ERmany;rounded=0;fontFamily=Tahoma;fontColor=default;fontStyle=1;labelBackgroundColor=#FFF2CC;autosize=1;entryX=1;entryY=0.5;entryDx=0;entryDy=0;exitX=0;exitY=0.5;exitDx=0;exitDy=0;" parent="1" source="m34MKxqJi3zST9WV0es3-2" target="m34MKxqJi3zST9WV0es3-26" edge="1">
          <mxGeometry width="100" height="100" relative="1" as="geometry">
            <mxPoint x="888" y="528" as="sourcePoint" />
            <mxPoint x="892" y="420" as="targetPoint" />
          </mxGeometry>
        </mxCell>
        <mxCell id="m34MKxqJi3zST9WV0es3-34" value="DOMANDE_RISPOSTE" style="shape=table;startSize=44;container=1;collapsible=1;childLayout=tableLayout;fixedRows=1;rowLines=0;fontStyle=1;align=center;resizeLast=1;html=1;rounded=1;fillStyle=auto;strokeColor=#d79b00;strokeWidth=2;verticalAlign=middle;swimlaneFillColor=none;fontFamily=Tahoma;fontSize=14;fontColor=default;labelBackgroundColor=#FFF2CC;autosize=1;fillColor=#ffe6cc;" parent="1" vertex="1">
          <mxGeometry x="480" y="852" width="396" height="213" as="geometry" />
        </mxCell>
        <mxCell id="m34MKxqJi3zST9WV0es3-35" value="" style="shape=tableRow;horizontal=0;startSize=0;swimlaneHead=0;swimlaneBody=0;fillColor=none;collapsible=0;dropTarget=0;points=[[0,0.5],[1,0.5]];portConstraint=eastwest;top=0;left=0;right=0;bottom=1;rounded=1;fillStyle=auto;strokeColor=#d79b00;strokeWidth=2;align=center;verticalAlign=middle;swimlaneFillColor=none;fontFamily=Tahoma;fontSize=14;fontColor=default;fontStyle=1;labelBackgroundColor=#FFF2CC;autosize=1;" parent="m34MKxqJi3zST9WV0es3-34" vertex="1">
          <mxGeometry y="44" width="396" height="33" as="geometry" />
        </mxCell>
        <mxCell id="m34MKxqJi3zST9WV0es3-36" value="PK" style="shape=partialRectangle;connectable=0;fillColor=none;top=0;left=0;bottom=0;right=0;fontStyle=1;overflow=hidden;whiteSpace=wrap;html=1;rounded=1;fillStyle=auto;strokeColor=#d79b00;strokeWidth=2;align=center;verticalAlign=middle;swimlaneFillColor=none;fontFamily=Tahoma;fontSize=14;fontColor=default;labelBackgroundColor=#FFF2CC;autosize=1;" parent="m34MKxqJi3zST9WV0es3-35" vertex="1">
          <mxGeometry width="48" height="33" as="geometry">
            <mxRectangle width="48" height="33" as="alternateBounds" />
          </mxGeometry>
        </mxCell>
        <mxCell id="m34MKxqJi3zST9WV0es3-37" value="OID bigint not null" style="shape=partialRectangle;connectable=0;fillColor=none;top=0;left=0;bottom=0;right=0;align=left;spacingLeft=6;fontStyle=5;overflow=hidden;whiteSpace=wrap;html=1;rounded=1;fillStyle=auto;strokeColor=#d79b00;strokeWidth=2;verticalAlign=middle;swimlaneFillColor=none;fontFamily=Tahoma;fontSize=14;fontColor=default;labelBackgroundColor=#FFF2CC;autosize=1;" parent="m34MKxqJi3zST9WV0es3-35" vertex="1">
          <mxGeometry x="48" width="348" height="33" as="geometry">
            <mxRectangle width="348" height="33" as="alternateBounds" />
          </mxGeometry>
        </mxCell>
        <mxCell id="m34MKxqJi3zST9WV0es3-38" value="" style="shape=tableRow;horizontal=0;startSize=0;swimlaneHead=0;swimlaneBody=0;fillColor=none;collapsible=0;dropTarget=0;points=[[0,0.5],[1,0.5]];portConstraint=eastwest;top=0;left=0;right=0;bottom=0;rounded=1;fillStyle=auto;strokeColor=#d79b00;strokeWidth=2;align=center;verticalAlign=middle;swimlaneFillColor=none;fontFamily=Tahoma;fontSize=14;fontColor=default;fontStyle=1;labelBackgroundColor=#FFF2CC;autosize=1;" parent="m34MKxqJi3zST9WV0es3-34" vertex="1">
          <mxGeometry y="77" width="396" height="33" as="geometry" />
        </mxCell>
        <mxCell id="m34MKxqJi3zST9WV0es3-39" value="" style="shape=partialRectangle;connectable=0;fillColor=none;top=0;left=0;bottom=0;right=0;editable=1;overflow=hidden;whiteSpace=wrap;html=1;rounded=1;fillStyle=auto;strokeColor=#d79b00;strokeWidth=2;align=center;verticalAlign=middle;swimlaneFillColor=none;fontFamily=Tahoma;fontSize=14;fontColor=default;fontStyle=1;labelBackgroundColor=#FFF2CC;autosize=1;" parent="m34MKxqJi3zST9WV0es3-38" vertex="1">
          <mxGeometry width="48" height="33" as="geometry">
            <mxRectangle width="48" height="33" as="alternateBounds" />
          </mxGeometry>
        </mxCell>
        <mxCell id="m34MKxqJi3zST9WV0es3-40" value="&lt;span style=&quot;font-weight: normal;&quot;&gt;OID_DOMANDA bigint not null&lt;/span&gt;" style="shape=partialRectangle;connectable=0;fillColor=none;top=0;left=0;bottom=0;right=0;align=left;spacingLeft=6;overflow=hidden;whiteSpace=wrap;html=1;rounded=1;fillStyle=auto;strokeColor=#d79b00;strokeWidth=2;verticalAlign=middle;swimlaneFillColor=none;fontFamily=Tahoma;fontSize=14;fontColor=default;fontStyle=1;labelBackgroundColor=#FFF2CC;autosize=1;" parent="m34MKxqJi3zST9WV0es3-38" vertex="1">
          <mxGeometry x="48" width="348" height="33" as="geometry">
            <mxRectangle width="348" height="33" as="alternateBounds" />
          </mxGeometry>
        </mxCell>
        <mxCell id="m34MKxqJi3zST9WV0es3-41" value="" style="shape=tableRow;horizontal=0;startSize=0;swimlaneHead=0;swimlaneBody=0;fillColor=none;collapsible=0;dropTarget=0;points=[[0,0.5],[1,0.5]];portConstraint=eastwest;top=0;left=0;right=0;bottom=0;rounded=1;fillStyle=auto;strokeColor=#d79b00;strokeWidth=2;align=center;verticalAlign=middle;swimlaneFillColor=none;fontFamily=Tahoma;fontSize=14;fontColor=default;fontStyle=1;labelBackgroundColor=#FFF2CC;autosize=1;" parent="m34MKxqJi3zST9WV0es3-34" vertex="1">
          <mxGeometry y="110" width="396" height="35" as="geometry" />
        </mxCell>
        <mxCell id="m34MKxqJi3zST9WV0es3-42" value="" style="shape=partialRectangle;connectable=0;fillColor=none;top=0;left=0;bottom=0;right=0;editable=1;overflow=hidden;whiteSpace=wrap;html=1;rounded=1;fillStyle=auto;strokeColor=#d79b00;strokeWidth=2;align=center;verticalAlign=middle;swimlaneFillColor=none;fontFamily=Tahoma;fontSize=14;fontColor=default;fontStyle=1;labelBackgroundColor=#FFF2CC;autosize=1;" parent="m34MKxqJi3zST9WV0es3-41" vertex="1">
          <mxGeometry width="48" height="35" as="geometry">
            <mxRectangle width="48" height="35" as="alternateBounds" />
          </mxGeometry>
        </mxCell>
        <mxCell id="m34MKxqJi3zST9WV0es3-43" value="&lt;span style=&quot;font-weight: normal;&quot;&gt;ID_RISPOSTA int not null&lt;/span&gt;" style="shape=partialRectangle;connectable=0;fillColor=none;top=0;left=0;bottom=0;right=0;align=left;spacingLeft=6;overflow=hidden;whiteSpace=wrap;html=1;rounded=1;fillStyle=auto;strokeColor=#d79b00;strokeWidth=2;verticalAlign=middle;swimlaneFillColor=none;fontFamily=Tahoma;fontSize=14;fontColor=default;fontStyle=1;labelBackgroundColor=#FFF2CC;autosize=1;" parent="m34MKxqJi3zST9WV0es3-41" vertex="1">
          <mxGeometry x="48" width="348" height="35" as="geometry">
            <mxRectangle width="348" height="35" as="alternateBounds" />
          </mxGeometry>
        </mxCell>
        <mxCell id="m34MKxqJi3zST9WV0es3-44" value="" style="shape=tableRow;horizontal=0;startSize=0;swimlaneHead=0;swimlaneBody=0;fillColor=none;collapsible=0;dropTarget=0;points=[[0,0.5],[1,0.5]];portConstraint=eastwest;top=0;left=0;right=0;bottom=0;rounded=1;fillStyle=auto;strokeColor=#d79b00;strokeWidth=2;align=center;verticalAlign=middle;swimlaneFillColor=none;fontFamily=Tahoma;fontSize=14;fontColor=default;fontStyle=1;labelBackgroundColor=#FFF2CC;autosize=1;" parent="m34MKxqJi3zST9WV0es3-34" vertex="1">
          <mxGeometry y="145" width="396" height="33" as="geometry" />
        </mxCell>
        <mxCell id="m34MKxqJi3zST9WV0es3-45" value="" style="shape=partialRectangle;connectable=0;fillColor=none;top=0;left=0;bottom=0;right=0;editable=1;overflow=hidden;whiteSpace=wrap;html=1;rounded=1;fillStyle=auto;strokeColor=#d79b00;strokeWidth=2;align=center;verticalAlign=middle;swimlaneFillColor=none;fontFamily=Tahoma;fontSize=14;fontColor=default;fontStyle=1;labelBackgroundColor=#FFF2CC;autosize=1;" parent="m34MKxqJi3zST9WV0es3-44" vertex="1">
          <mxGeometry width="48" height="33" as="geometry">
            <mxRectangle width="48" height="33" as="alternateBounds" />
          </mxGeometry>
        </mxCell>
        <mxCell id="m34MKxqJi3zST9WV0es3-46" value="&lt;span style=&quot;font-weight: normal;&quot;&gt;DS_RISPOSTA varchar(255)&lt;/span&gt;" style="shape=partialRectangle;connectable=0;fillColor=none;top=0;left=0;bottom=0;right=0;align=left;spacingLeft=6;overflow=hidden;whiteSpace=wrap;html=1;rounded=1;fillStyle=auto;strokeColor=#d79b00;strokeWidth=2;verticalAlign=middle;swimlaneFillColor=none;fontFamily=Tahoma;fontSize=14;fontColor=default;fontStyle=1;labelBackgroundColor=#FFF2CC;autosize=1;" parent="m34MKxqJi3zST9WV0es3-44" vertex="1">
          <mxGeometry x="48" width="348" height="33" as="geometry">
            <mxRectangle width="348" height="33" as="alternateBounds" />
          </mxGeometry>
        </mxCell>
        <mxCell id="N1hCJC-q3A-ygzUtOH68-1" style="shape=tableRow;horizontal=0;startSize=0;swimlaneHead=0;swimlaneBody=0;fillColor=none;collapsible=0;dropTarget=0;points=[[0,0.5],[1,0.5]];portConstraint=eastwest;top=0;left=0;right=0;bottom=0;rounded=1;fillStyle=auto;strokeColor=#d79b00;strokeWidth=2;align=center;verticalAlign=middle;swimlaneFillColor=none;fontFamily=Tahoma;fontSize=14;fontColor=default;fontStyle=1;labelBackgroundColor=#FFF2CC;autosize=1;" parent="m34MKxqJi3zST9WV0es3-34" vertex="1">
          <mxGeometry y="178" width="396" height="35" as="geometry" />
        </mxCell>
        <mxCell id="N1hCJC-q3A-ygzUtOH68-2" style="shape=partialRectangle;connectable=0;fillColor=none;top=0;left=0;bottom=0;right=0;editable=1;overflow=hidden;whiteSpace=wrap;html=1;rounded=1;fillStyle=auto;strokeColor=#d79b00;strokeWidth=2;align=center;verticalAlign=middle;swimlaneFillColor=none;fontFamily=Tahoma;fontSize=14;fontColor=default;fontStyle=1;labelBackgroundColor=#FFF2CC;autosize=1;" parent="N1hCJC-q3A-ygzUtOH68-1" vertex="1">
          <mxGeometry width="48" height="35" as="geometry">
            <mxRectangle width="48" height="35" as="alternateBounds" />
          </mxGeometry>
        </mxCell>
        <mxCell id="N1hCJC-q3A-ygzUtOH68-3" value="&lt;span style=&quot;font-weight: normal;&quot;&gt;FL_CORRETTA varchar(1) not null default &#39;N&#39;&lt;/span&gt;" style="shape=partialRectangle;connectable=0;fillColor=none;top=0;left=0;bottom=0;right=0;align=left;spacingLeft=6;overflow=hidden;whiteSpace=wrap;html=1;rounded=1;fillStyle=auto;strokeColor=#d79b00;strokeWidth=2;verticalAlign=middle;swimlaneFillColor=none;fontFamily=Tahoma;fontSize=14;fontColor=default;fontStyle=1;labelBackgroundColor=#FFF2CC;autosize=1;" parent="N1hCJC-q3A-ygzUtOH68-1" vertex="1">
          <mxGeometry x="48" width="348" height="35" as="geometry">
            <mxRectangle width="348" height="35" as="alternateBounds" />
          </mxGeometry>
        </mxCell>
        <mxCell id="N1hCJC-q3A-ygzUtOH68-4" value="" style="edgeStyle=entityRelationEdgeStyle;fontSize=12;html=1;endArrow=ERoneToMany;rounded=0;exitX=0;exitY=0.5;exitDx=0;exitDy=0;entryX=1;entryY=0.5;entryDx=0;entryDy=0;" parent="1" source="m34MKxqJi3zST9WV0es3-2" target="m34MKxqJi3zST9WV0es3-38" edge="1">
          <mxGeometry width="100" height="100" relative="1" as="geometry">
            <mxPoint x="912" y="904" as="sourcePoint" />
            <mxPoint x="1012" y="804" as="targetPoint" />
          </mxGeometry>
        </mxCell>
        <mxCell id="N1hCJC-q3A-ygzUtOH68-6" value="" style="edgeStyle=elbowEdgeStyle;fontSize=12;html=1;endArrow=ERoneToMany;rounded=0;exitX=0;exitY=0.5;exitDx=0;exitDy=0;entryX=0;entryY=0.5;entryDx=0;entryDy=0;" parent="1" source="qOrY5MYCo33ZCtALiVbq-124" target="TVsmqj7EBqzm4wI7fiK9-17" edge="1">
          <mxGeometry width="100" height="100" relative="1" as="geometry">
            <mxPoint x="-540" y="868" as="sourcePoint" />
            <mxPoint x="-440" y="768" as="targetPoint" />
            <Array as="points">
              <mxPoint x="-444" y="840" />
            </Array>
          </mxGeometry>
        </mxCell>
        <mxCell id="N1hCJC-q3A-ygzUtOH68-43" value="STORICO_PARTITE_UTENTI" style="shape=table;startSize=44;container=1;collapsible=1;childLayout=tableLayout;fixedRows=1;rowLines=0;fontStyle=1;align=center;resizeLast=1;html=1;rounded=1;fillStyle=auto;strokeColor=#d79b00;strokeWidth=2;verticalAlign=middle;swimlaneFillColor=none;fontFamily=Tahoma;fontSize=14;fontColor=default;labelBackgroundColor=#FFF2CC;autosize=1;fillColor=#ffe6cc;" parent="1" vertex="1">
          <mxGeometry x="-876" y="19" width="348" height="216" as="geometry" />
        </mxCell>
        <mxCell id="N1hCJC-q3A-ygzUtOH68-44" value="" style="shape=tableRow;horizontal=0;startSize=0;swimlaneHead=0;swimlaneBody=0;fillColor=none;collapsible=0;dropTarget=0;points=[[0,0.5],[1,0.5]];portConstraint=eastwest;top=0;left=0;right=0;bottom=1;rounded=1;fillStyle=auto;strokeColor=#d79b00;strokeWidth=2;align=center;verticalAlign=middle;swimlaneFillColor=none;fontFamily=Tahoma;fontSize=14;fontColor=default;fontStyle=1;labelBackgroundColor=#FFF2CC;autosize=1;" parent="N1hCJC-q3A-ygzUtOH68-43" vertex="1">
          <mxGeometry y="44" width="348" height="33" as="geometry" />
        </mxCell>
        <mxCell id="N1hCJC-q3A-ygzUtOH68-45" value="PK" style="shape=partialRectangle;connectable=0;fillColor=none;top=0;left=0;bottom=0;right=0;fontStyle=1;overflow=hidden;whiteSpace=wrap;html=1;rounded=1;fillStyle=auto;strokeColor=#d79b00;strokeWidth=2;align=center;verticalAlign=middle;swimlaneFillColor=none;fontFamily=Tahoma;fontSize=14;fontColor=default;labelBackgroundColor=#FFF2CC;autosize=1;" parent="N1hCJC-q3A-ygzUtOH68-44" vertex="1">
          <mxGeometry width="30" height="33" as="geometry">
            <mxRectangle width="30" height="33" as="alternateBounds" />
          </mxGeometry>
        </mxCell>
        <mxCell id="N1hCJC-q3A-ygzUtOH68-46" value="OID bigint not null" style="shape=partialRectangle;connectable=0;fillColor=none;top=0;left=0;bottom=0;right=0;align=left;spacingLeft=6;fontStyle=5;overflow=hidden;whiteSpace=wrap;html=1;rounded=1;fillStyle=auto;strokeColor=#d79b00;strokeWidth=2;verticalAlign=middle;swimlaneFillColor=none;fontFamily=Tahoma;fontSize=14;fontColor=default;labelBackgroundColor=#FFF2CC;autosize=1;" parent="N1hCJC-q3A-ygzUtOH68-44" vertex="1">
          <mxGeometry x="30" width="318" height="33" as="geometry">
            <mxRectangle width="318" height="33" as="alternateBounds" />
          </mxGeometry>
        </mxCell>
        <mxCell id="N1hCJC-q3A-ygzUtOH68-56" style="shape=tableRow;horizontal=0;startSize=0;swimlaneHead=0;swimlaneBody=0;fillColor=none;collapsible=0;dropTarget=0;points=[[0,0.5],[1,0.5]];portConstraint=eastwest;top=0;left=0;right=0;bottom=0;rounded=1;fillStyle=auto;strokeColor=#d79b00;strokeWidth=2;align=center;verticalAlign=middle;swimlaneFillColor=none;fontFamily=Tahoma;fontSize=14;fontColor=default;fontStyle=1;labelBackgroundColor=#FFF2CC;autosize=1;" parent="N1hCJC-q3A-ygzUtOH68-43" vertex="1">
          <mxGeometry y="77" width="348" height="35" as="geometry" />
        </mxCell>
        <mxCell id="N1hCJC-q3A-ygzUtOH68-57" style="shape=partialRectangle;connectable=0;fillColor=none;top=0;left=0;bottom=0;right=0;editable=1;overflow=hidden;whiteSpace=wrap;html=1;rounded=1;fillStyle=auto;strokeColor=#d79b00;strokeWidth=2;align=center;verticalAlign=middle;swimlaneFillColor=none;fontFamily=Tahoma;fontSize=14;fontColor=default;fontStyle=1;labelBackgroundColor=#FFF2CC;autosize=1;" parent="N1hCJC-q3A-ygzUtOH68-56" vertex="1">
          <mxGeometry width="30" height="35" as="geometry">
            <mxRectangle width="30" height="35" as="alternateBounds" />
          </mxGeometry>
        </mxCell>
        <mxCell id="N1hCJC-q3A-ygzUtOH68-58" value="&lt;span style=&quot;font-weight: normal;&quot;&gt;OID_STORICO_PARTITA bigint not null&lt;/span&gt;" style="shape=partialRectangle;connectable=0;fillColor=none;top=0;left=0;bottom=0;right=0;align=left;spacingLeft=6;overflow=hidden;whiteSpace=wrap;html=1;rounded=1;fillStyle=auto;strokeColor=#d79b00;strokeWidth=2;verticalAlign=middle;swimlaneFillColor=none;fontFamily=Tahoma;fontSize=14;fontColor=default;fontStyle=1;labelBackgroundColor=#FFF2CC;autosize=1;" parent="N1hCJC-q3A-ygzUtOH68-56" vertex="1">
          <mxGeometry x="30" width="318" height="35" as="geometry">
            <mxRectangle width="318" height="35" as="alternateBounds" />
          </mxGeometry>
        </mxCell>
        <mxCell id="N1hCJC-q3A-ygzUtOH68-47" value="" style="shape=tableRow;horizontal=0;startSize=0;swimlaneHead=0;swimlaneBody=0;fillColor=none;collapsible=0;dropTarget=0;points=[[0,0.5],[1,0.5]];portConstraint=eastwest;top=0;left=0;right=0;bottom=0;rounded=1;fillStyle=auto;strokeColor=#d79b00;strokeWidth=2;align=center;verticalAlign=middle;swimlaneFillColor=none;fontFamily=Tahoma;fontSize=14;fontColor=default;fontStyle=1;labelBackgroundColor=#FFF2CC;autosize=1;" parent="N1hCJC-q3A-ygzUtOH68-43" vertex="1">
          <mxGeometry y="112" width="348" height="36" as="geometry" />
        </mxCell>
        <mxCell id="N1hCJC-q3A-ygzUtOH68-48" value="" style="shape=partialRectangle;connectable=0;fillColor=none;top=0;left=0;bottom=0;right=0;editable=1;overflow=hidden;whiteSpace=wrap;html=1;rounded=1;fillStyle=auto;strokeColor=#d79b00;strokeWidth=2;align=center;verticalAlign=middle;swimlaneFillColor=none;fontFamily=Tahoma;fontSize=14;fontColor=default;fontStyle=1;labelBackgroundColor=#FFF2CC;autosize=1;" parent="N1hCJC-q3A-ygzUtOH68-47" vertex="1">
          <mxGeometry width="30" height="36" as="geometry">
            <mxRectangle width="30" height="36" as="alternateBounds" />
          </mxGeometry>
        </mxCell>
        <mxCell id="N1hCJC-q3A-ygzUtOH68-49" value="&lt;span style=&quot;font-weight: 400;&quot;&gt;OID_UTENTE bigint not null&lt;/span&gt;" style="shape=partialRectangle;connectable=0;fillColor=none;top=0;left=0;bottom=0;right=0;align=left;spacingLeft=6;overflow=hidden;whiteSpace=wrap;html=1;rounded=1;fillStyle=auto;strokeColor=#d79b00;strokeWidth=2;verticalAlign=middle;swimlaneFillColor=none;fontFamily=Tahoma;fontSize=14;fontColor=default;fontStyle=1;labelBackgroundColor=#FFF2CC;autosize=1;" parent="N1hCJC-q3A-ygzUtOH68-47" vertex="1">
          <mxGeometry x="30" width="318" height="36" as="geometry">
            <mxRectangle width="318" height="36" as="alternateBounds" />
          </mxGeometry>
        </mxCell>
        <mxCell id="N1hCJC-q3A-ygzUtOH68-53" value="" style="shape=tableRow;horizontal=0;startSize=0;swimlaneHead=0;swimlaneBody=0;fillColor=none;collapsible=0;dropTarget=0;points=[[0,0.5],[1,0.5]];portConstraint=eastwest;top=0;left=0;right=0;bottom=0;rounded=1;fillStyle=auto;strokeColor=#d79b00;strokeWidth=2;align=center;verticalAlign=middle;swimlaneFillColor=none;fontFamily=Tahoma;fontSize=14;fontColor=default;fontStyle=1;labelBackgroundColor=#FFF2CC;autosize=1;" parent="N1hCJC-q3A-ygzUtOH68-43" vertex="1">
          <mxGeometry y="148" width="348" height="33" as="geometry" />
        </mxCell>
        <mxCell id="N1hCJC-q3A-ygzUtOH68-54" value="" style="shape=partialRectangle;connectable=0;fillColor=none;top=0;left=0;bottom=0;right=0;editable=1;overflow=hidden;whiteSpace=wrap;html=1;rounded=1;fillStyle=auto;strokeColor=#d79b00;strokeWidth=2;align=center;verticalAlign=middle;swimlaneFillColor=none;fontFamily=Tahoma;fontSize=14;fontColor=default;fontStyle=1;labelBackgroundColor=#FFF2CC;autosize=1;" parent="N1hCJC-q3A-ygzUtOH68-53" vertex="1">
          <mxGeometry width="30" height="33" as="geometry">
            <mxRectangle width="30" height="33" as="alternateBounds" />
          </mxGeometry>
        </mxCell>
        <mxCell id="N1hCJC-q3A-ygzUtOH68-55" value="&lt;span style=&quot;font-weight: normal;&quot;&gt;NM_RISPOSTE_CORRETTE int not null&lt;/span&gt;" style="shape=partialRectangle;connectable=0;fillColor=none;top=0;left=0;bottom=0;right=0;align=left;spacingLeft=6;overflow=hidden;whiteSpace=wrap;html=1;rounded=1;fillStyle=auto;strokeColor=#d79b00;strokeWidth=2;verticalAlign=middle;swimlaneFillColor=none;fontFamily=Tahoma;fontSize=14;fontColor=default;fontStyle=1;labelBackgroundColor=#FFF2CC;autosize=1;" parent="N1hCJC-q3A-ygzUtOH68-53" vertex="1">
          <mxGeometry x="30" width="318" height="33" as="geometry">
            <mxRectangle width="318" height="33" as="alternateBounds" />
          </mxGeometry>
        </mxCell>
        <mxCell id="02ITlk-bv1gkPpf5R0bE-1" style="shape=tableRow;horizontal=0;startSize=0;swimlaneHead=0;swimlaneBody=0;fillColor=none;collapsible=0;dropTarget=0;points=[[0,0.5],[1,0.5]];portConstraint=eastwest;top=0;left=0;right=0;bottom=0;rounded=1;fillStyle=auto;strokeColor=#d79b00;strokeWidth=2;align=center;verticalAlign=middle;swimlaneFillColor=none;fontFamily=Tahoma;fontSize=14;fontColor=default;fontStyle=1;labelBackgroundColor=#FFF2CC;autosize=1;" parent="N1hCJC-q3A-ygzUtOH68-43" vertex="1">
          <mxGeometry y="181" width="348" height="35" as="geometry" />
        </mxCell>
        <mxCell id="02ITlk-bv1gkPpf5R0bE-2" style="shape=partialRectangle;connectable=0;fillColor=none;top=0;left=0;bottom=0;right=0;editable=1;overflow=hidden;whiteSpace=wrap;html=1;rounded=1;fillStyle=auto;strokeColor=#d79b00;strokeWidth=2;align=center;verticalAlign=middle;swimlaneFillColor=none;fontFamily=Tahoma;fontSize=14;fontColor=default;fontStyle=1;labelBackgroundColor=#FFF2CC;autosize=1;" parent="02ITlk-bv1gkPpf5R0bE-1" vertex="1">
          <mxGeometry width="30" height="35" as="geometry">
            <mxRectangle width="30" height="35" as="alternateBounds" />
          </mxGeometry>
        </mxCell>
        <mxCell id="02ITlk-bv1gkPpf5R0bE-3" value="&lt;span style=&quot;font-weight: 400;&quot;&gt;FL_ESITO char(1) not null&lt;/span&gt;" style="shape=partialRectangle;connectable=0;fillColor=none;top=0;left=0;bottom=0;right=0;align=left;spacingLeft=6;overflow=hidden;whiteSpace=wrap;html=1;rounded=1;fillStyle=auto;strokeColor=#d79b00;strokeWidth=2;verticalAlign=middle;swimlaneFillColor=none;fontFamily=Tahoma;fontSize=14;fontColor=default;fontStyle=1;labelBackgroundColor=#FFF2CC;autosize=1;" parent="02ITlk-bv1gkPpf5R0bE-1" vertex="1">
          <mxGeometry x="30" width="318" height="35" as="geometry">
            <mxRectangle width="318" height="35" as="alternateBounds" />
          </mxGeometry>
        </mxCell>
        <mxCell id="N1hCJC-q3A-ygzUtOH68-59" value="" style="edgeStyle=elbowEdgeStyle;fontSize=12;html=1;endArrow=ERoneToMany;rounded=0;fontFamily=Tahoma;fontColor=default;fontStyle=1;labelBackgroundColor=#FFF2CC;autosize=1;exitX=1;exitY=0.5;exitDx=0;exitDy=0;entryX=1;entryY=0.5;entryDx=0;entryDy=0;" parent="1" source="_VB6UE8N2bxIzV9tyc8Q-39" target="N1hCJC-q3A-ygzUtOH68-56" edge="1">
          <mxGeometry width="100" height="100" relative="1" as="geometry">
            <mxPoint x="-528" y="-472.5" as="sourcePoint" />
            <mxPoint x="-308" y="-233" as="targetPoint" />
            <Array as="points">
              <mxPoint x="-468" y="-197" />
            </Array>
          </mxGeometry>
        </mxCell>
        <mxCell id="02ITlk-bv1gkPpf5R0bE-7" value="" style="edgeStyle=entityRelationEdgeStyle;fontSize=12;html=1;endArrow=ERoneToMany;rounded=0;entryX=1;entryY=0.5;entryDx=0;entryDy=0;exitX=0;exitY=0.5;exitDx=0;exitDy=0;" parent="1" source="snsSf5KUjU3tVVeuk6Za-121" target="N1hCJC-q3A-ygzUtOH68-47" edge="1">
          <mxGeometry width="100" height="100" relative="1" as="geometry">
            <mxPoint x="-216" y="172" as="sourcePoint" />
            <mxPoint x="-116" y="72" as="targetPoint" />
          </mxGeometry>
        </mxCell>
        <mxCell id="LQUl6KCKLYszlfZjXtzs-4" value="&lt;font style=&quot;font-size: 24px;&quot;&gt;KeyClock WSO2&lt;/font&gt;" style="html=1;whiteSpace=wrap;" parent="1" vertex="1">
          <mxGeometry x="47" y="-240" width="279" height="159" as="geometry" />
        </mxCell>
        <mxCell id="LQUl6KCKLYszlfZjXtzs-5" value="" style="edgeStyle=entityRelationEdgeStyle;fontSize=12;html=1;endArrow=ERmandOne;startArrow=ERmandOne;rounded=0;entryX=1;entryY=0.5;entryDx=0;entryDy=0;exitX=1;exitY=0.5;exitDx=0;exitDy=0;" parent="1" source="snsSf5KUjU3tVVeuk6Za-124" target="LQUl6KCKLYszlfZjXtzs-4" edge="1">
          <mxGeometry width="100" height="100" relative="1" as="geometry">
            <mxPoint x="444" y="31" as="sourcePoint" />
            <mxPoint x="544" y="-69" as="targetPoint" />
            <Array as="points">
              <mxPoint x="612" y="15" />
              <mxPoint x="648" y="24" />
              <mxPoint x="552" y="24" />
            </Array>
          </mxGeometry>
        </mxCell>
        <mxCell id="_VB6UE8N2bxIzV9tyc8Q-38" value="STORICO_PARTITE" style="shape=table;startSize=44;container=1;collapsible=1;childLayout=tableLayout;fixedRows=1;rowLines=0;fontStyle=1;align=center;resizeLast=1;html=1;rounded=1;fillStyle=auto;strokeColor=#d79b00;strokeWidth=2;verticalAlign=middle;swimlaneFillColor=none;fontFamily=Tahoma;fontSize=14;fontColor=default;labelBackgroundColor=#FFF2CC;autosize=1;fillColor=#ffe6cc;" parent="1" vertex="1">
          <mxGeometry x="-912" y="-600" width="384" height="460" as="geometry" />
        </mxCell>
        <mxCell id="_VB6UE8N2bxIzV9tyc8Q-39" value="" style="shape=tableRow;horizontal=0;startSize=0;swimlaneHead=0;swimlaneBody=0;fillColor=none;collapsible=0;dropTarget=0;points=[[0,0.5],[1,0.5]];portConstraint=eastwest;top=0;left=0;right=0;bottom=1;rounded=1;fillStyle=auto;strokeColor=#d79b00;strokeWidth=2;align=center;verticalAlign=middle;swimlaneFillColor=none;fontFamily=Tahoma;fontSize=14;fontColor=default;fontStyle=1;labelBackgroundColor=#FFF2CC;autosize=1;" parent="_VB6UE8N2bxIzV9tyc8Q-38" vertex="1">
          <mxGeometry y="44" width="384" height="33" as="geometry" />
        </mxCell>
        <mxCell id="_VB6UE8N2bxIzV9tyc8Q-40" value="PK" style="shape=partialRectangle;connectable=0;fillColor=none;top=0;left=0;bottom=0;right=0;fontStyle=1;overflow=hidden;whiteSpace=wrap;html=1;rounded=1;fillStyle=auto;strokeColor=#d79b00;strokeWidth=2;align=center;verticalAlign=middle;swimlaneFillColor=none;fontFamily=Tahoma;fontSize=14;fontColor=default;labelBackgroundColor=#FFF2CC;autosize=1;" parent="_VB6UE8N2bxIzV9tyc8Q-39" vertex="1">
          <mxGeometry width="48" height="33" as="geometry">
            <mxRectangle width="48" height="33" as="alternateBounds" />
          </mxGeometry>
        </mxCell>
        <mxCell id="_VB6UE8N2bxIzV9tyc8Q-41" value="OID bigint not null" style="shape=partialRectangle;connectable=0;fillColor=none;top=0;left=0;bottom=0;right=0;align=left;spacingLeft=6;fontStyle=5;overflow=hidden;whiteSpace=wrap;html=1;rounded=1;fillStyle=auto;strokeColor=#d79b00;strokeWidth=2;verticalAlign=middle;swimlaneFillColor=none;fontFamily=Tahoma;fontSize=14;fontColor=default;labelBackgroundColor=#FFF2CC;autosize=1;" parent="_VB6UE8N2bxIzV9tyc8Q-39" vertex="1">
          <mxGeometry x="48" width="336" height="33" as="geometry">
            <mxRectangle width="336" height="33" as="alternateBounds" />
          </mxGeometry>
        </mxCell>
        <mxCell id="_VB6UE8N2bxIzV9tyc8Q-42" value="" style="shape=tableRow;horizontal=0;startSize=0;swimlaneHead=0;swimlaneBody=0;fillColor=none;collapsible=0;dropTarget=0;points=[[0,0.5],[1,0.5]];portConstraint=eastwest;top=0;left=0;right=0;bottom=0;rounded=1;fillStyle=auto;strokeColor=#d79b00;strokeWidth=2;align=center;verticalAlign=middle;swimlaneFillColor=none;fontFamily=Tahoma;fontSize=14;fontColor=default;fontStyle=1;labelBackgroundColor=#FFF2CC;autosize=1;" parent="_VB6UE8N2bxIzV9tyc8Q-38" vertex="1">
          <mxGeometry y="77" width="384" height="36" as="geometry" />
        </mxCell>
        <mxCell id="_VB6UE8N2bxIzV9tyc8Q-43" value="FK" style="shape=partialRectangle;connectable=0;fillColor=none;top=0;left=0;bottom=0;right=0;editable=1;overflow=hidden;whiteSpace=wrap;html=1;rounded=1;fillStyle=auto;strokeColor=#d79b00;strokeWidth=2;align=center;verticalAlign=middle;swimlaneFillColor=none;fontFamily=Tahoma;fontSize=14;fontColor=default;fontStyle=1;labelBackgroundColor=#FFF2CC;autosize=1;" parent="_VB6UE8N2bxIzV9tyc8Q-42" vertex="1">
          <mxGeometry width="48" height="36" as="geometry">
            <mxRectangle width="48" height="36" as="alternateBounds" />
          </mxGeometry>
        </mxCell>
        <mxCell id="_VB6UE8N2bxIzV9tyc8Q-44" value="&lt;span style=&quot;font-weight: normal;&quot;&gt;ID_PARTITA varchar(20) not null&lt;/span&gt;" style="shape=partialRectangle;connectable=0;fillColor=none;top=0;left=0;bottom=0;right=0;align=left;spacingLeft=6;overflow=hidden;whiteSpace=wrap;html=1;rounded=1;fillStyle=auto;strokeColor=#d79b00;strokeWidth=2;verticalAlign=middle;swimlaneFillColor=none;fontFamily=Tahoma;fontSize=14;fontColor=default;fontStyle=1;labelBackgroundColor=#FFF2CC;autosize=1;" parent="_VB6UE8N2bxIzV9tyc8Q-42" vertex="1">
          <mxGeometry x="48" width="336" height="36" as="geometry">
            <mxRectangle width="336" height="36" as="alternateBounds" />
          </mxGeometry>
        </mxCell>
        <mxCell id="_VB6UE8N2bxIzV9tyc8Q-45" value="" style="shape=tableRow;horizontal=0;startSize=0;swimlaneHead=0;swimlaneBody=0;fillColor=none;collapsible=0;dropTarget=0;points=[[0,0.5],[1,0.5]];portConstraint=eastwest;top=0;left=0;right=0;bottom=0;rounded=1;fillStyle=auto;strokeColor=#d79b00;strokeWidth=2;align=center;verticalAlign=middle;swimlaneFillColor=none;fontFamily=Tahoma;fontSize=14;fontColor=default;fontStyle=1;labelBackgroundColor=#FFF2CC;autosize=1;" parent="_VB6UE8N2bxIzV9tyc8Q-38" vertex="1">
          <mxGeometry y="113" width="384" height="33" as="geometry" />
        </mxCell>
        <mxCell id="_VB6UE8N2bxIzV9tyc8Q-46" value="" style="shape=partialRectangle;connectable=0;fillColor=none;top=0;left=0;bottom=0;right=0;editable=1;overflow=hidden;whiteSpace=wrap;html=1;rounded=1;fillStyle=auto;strokeColor=#d79b00;strokeWidth=2;align=center;verticalAlign=middle;swimlaneFillColor=none;fontFamily=Tahoma;fontSize=14;fontColor=default;fontStyle=1;labelBackgroundColor=#FFF2CC;autosize=1;" parent="_VB6UE8N2bxIzV9tyc8Q-45" vertex="1">
          <mxGeometry width="48" height="33" as="geometry">
            <mxRectangle width="48" height="33" as="alternateBounds" />
          </mxGeometry>
        </mxCell>
        <mxCell id="_VB6UE8N2bxIzV9tyc8Q-47" value="&lt;span style=&quot;font-weight: normal;&quot;&gt;DS_PARTITA varchar(30)&amp;nbsp;&lt;/span&gt;" style="shape=partialRectangle;connectable=0;fillColor=none;top=0;left=0;bottom=0;right=0;align=left;spacingLeft=6;overflow=hidden;whiteSpace=wrap;html=1;rounded=1;fillStyle=auto;strokeColor=#d79b00;strokeWidth=2;verticalAlign=middle;swimlaneFillColor=none;fontFamily=Tahoma;fontSize=14;fontColor=default;fontStyle=1;labelBackgroundColor=#FFF2CC;autosize=1;" parent="_VB6UE8N2bxIzV9tyc8Q-45" vertex="1">
          <mxGeometry x="48" width="336" height="33" as="geometry">
            <mxRectangle width="336" height="33" as="alternateBounds" />
          </mxGeometry>
        </mxCell>
        <mxCell id="_VB6UE8N2bxIzV9tyc8Q-48" value="" style="shape=tableRow;horizontal=0;startSize=0;swimlaneHead=0;swimlaneBody=0;fillColor=none;collapsible=0;dropTarget=0;points=[[0,0.5],[1,0.5]];portConstraint=eastwest;top=0;left=0;right=0;bottom=0;rounded=1;fillStyle=auto;strokeColor=#d79b00;strokeWidth=2;align=center;verticalAlign=middle;swimlaneFillColor=none;fontFamily=Tahoma;fontSize=14;fontColor=default;fontStyle=1;labelBackgroundColor=#FFF2CC;autosize=1;" parent="_VB6UE8N2bxIzV9tyc8Q-38" vertex="1">
          <mxGeometry y="146" width="384" height="33" as="geometry" />
        </mxCell>
        <mxCell id="_VB6UE8N2bxIzV9tyc8Q-49" value="" style="shape=partialRectangle;connectable=0;fillColor=none;top=0;left=0;bottom=0;right=0;editable=1;overflow=hidden;whiteSpace=wrap;html=1;rounded=1;fillStyle=auto;strokeColor=#d79b00;strokeWidth=2;align=center;verticalAlign=middle;swimlaneFillColor=none;fontFamily=Tahoma;fontSize=14;fontColor=default;fontStyle=1;labelBackgroundColor=#FFF2CC;autosize=1;" parent="_VB6UE8N2bxIzV9tyc8Q-48" vertex="1">
          <mxGeometry width="48" height="33" as="geometry">
            <mxRectangle width="48" height="33" as="alternateBounds" />
          </mxGeometry>
        </mxCell>
        <mxCell id="_VB6UE8N2bxIzV9tyc8Q-50" value="&lt;span style=&quot;font-weight: normal;&quot;&gt;DT_CREAZIONE date not null default sysdate&lt;/span&gt;" style="shape=partialRectangle;connectable=0;fillColor=none;top=0;left=0;bottom=0;right=0;align=left;spacingLeft=6;overflow=hidden;whiteSpace=wrap;html=1;rounded=1;fillStyle=auto;strokeColor=#d79b00;strokeWidth=2;verticalAlign=middle;swimlaneFillColor=none;fontFamily=Tahoma;fontSize=14;fontColor=default;fontStyle=1;labelBackgroundColor=#FFF2CC;autosize=1;" parent="_VB6UE8N2bxIzV9tyc8Q-48" vertex="1">
          <mxGeometry x="48" width="336" height="33" as="geometry">
            <mxRectangle width="336" height="33" as="alternateBounds" />
          </mxGeometry>
        </mxCell>
        <mxCell id="_VB6UE8N2bxIzV9tyc8Q-51" style="shape=tableRow;horizontal=0;startSize=0;swimlaneHead=0;swimlaneBody=0;fillColor=none;collapsible=0;dropTarget=0;points=[[0,0.5],[1,0.5]];portConstraint=eastwest;top=0;left=0;right=0;bottom=0;rounded=1;fillStyle=auto;strokeColor=#d79b00;strokeWidth=2;align=center;verticalAlign=middle;swimlaneFillColor=none;fontFamily=Tahoma;fontSize=14;fontColor=default;fontStyle=1;labelBackgroundColor=#FFF2CC;autosize=1;" parent="_VB6UE8N2bxIzV9tyc8Q-38" vertex="1">
          <mxGeometry y="179" width="384" height="35" as="geometry" />
        </mxCell>
        <mxCell id="_VB6UE8N2bxIzV9tyc8Q-52" style="shape=partialRectangle;connectable=0;fillColor=none;top=0;left=0;bottom=0;right=0;editable=1;overflow=hidden;whiteSpace=wrap;html=1;rounded=1;fillStyle=auto;strokeColor=#d79b00;strokeWidth=2;align=center;verticalAlign=middle;swimlaneFillColor=none;fontFamily=Tahoma;fontSize=14;fontColor=default;fontStyle=1;labelBackgroundColor=#FFF2CC;autosize=1;" parent="_VB6UE8N2bxIzV9tyc8Q-51" vertex="1">
          <mxGeometry width="48" height="35" as="geometry">
            <mxRectangle width="48" height="35" as="alternateBounds" />
          </mxGeometry>
        </mxCell>
        <mxCell id="_VB6UE8N2bxIzV9tyc8Q-53" value="&lt;span style=&quot;font-weight: normal;&quot;&gt;TP_PARTITA char(1) not null&lt;/span&gt;" style="shape=partialRectangle;connectable=0;fillColor=none;top=0;left=0;bottom=0;right=0;align=left;spacingLeft=6;overflow=hidden;whiteSpace=wrap;html=1;rounded=1;fillStyle=auto;strokeColor=#d79b00;strokeWidth=2;verticalAlign=middle;swimlaneFillColor=none;fontFamily=Tahoma;fontSize=14;fontColor=default;fontStyle=1;labelBackgroundColor=#FFF2CC;autosize=1;" parent="_VB6UE8N2bxIzV9tyc8Q-51" vertex="1">
          <mxGeometry x="48" width="336" height="35" as="geometry">
            <mxRectangle width="336" height="35" as="alternateBounds" />
          </mxGeometry>
        </mxCell>
        <mxCell id="_VB6UE8N2bxIzV9tyc8Q-60" style="shape=tableRow;horizontal=0;startSize=0;swimlaneHead=0;swimlaneBody=0;fillColor=none;collapsible=0;dropTarget=0;points=[[0,0.5],[1,0.5]];portConstraint=eastwest;top=0;left=0;right=0;bottom=0;rounded=1;fillStyle=auto;strokeColor=#d79b00;strokeWidth=2;align=center;verticalAlign=middle;swimlaneFillColor=none;fontFamily=Tahoma;fontSize=14;fontColor=default;fontStyle=1;labelBackgroundColor=#FFF2CC;autosize=1;" parent="_VB6UE8N2bxIzV9tyc8Q-38" vertex="1">
          <mxGeometry y="214" width="384" height="41" as="geometry" />
        </mxCell>
        <mxCell id="_VB6UE8N2bxIzV9tyc8Q-61" style="shape=partialRectangle;connectable=0;fillColor=none;top=0;left=0;bottom=0;right=0;editable=1;overflow=hidden;whiteSpace=wrap;html=1;rounded=1;fillStyle=auto;strokeColor=#d79b00;strokeWidth=2;align=center;verticalAlign=middle;swimlaneFillColor=none;fontFamily=Tahoma;fontSize=14;fontColor=default;fontStyle=1;labelBackgroundColor=#FFF2CC;autosize=1;" parent="_VB6UE8N2bxIzV9tyc8Q-60" vertex="1">
          <mxGeometry width="48" height="41" as="geometry">
            <mxRectangle width="48" height="41" as="alternateBounds" />
          </mxGeometry>
        </mxCell>
        <mxCell id="_VB6UE8N2bxIzV9tyc8Q-62" value="NM_PARTECIPANTI_TOTALI int not null default 2" style="shape=partialRectangle;connectable=0;fillColor=none;top=0;left=0;bottom=0;right=0;align=left;spacingLeft=6;overflow=hidden;whiteSpace=wrap;html=1;rounded=1;fillStyle=auto;strokeColor=#d79b00;strokeWidth=2;verticalAlign=middle;swimlaneFillColor=none;fontFamily=Tahoma;fontSize=14;fontColor=default;fontStyle=0;labelBackgroundColor=#FFF2CC;autosize=1;" parent="_VB6UE8N2bxIzV9tyc8Q-60" vertex="1">
          <mxGeometry x="48" width="336" height="41" as="geometry">
            <mxRectangle width="336" height="41" as="alternateBounds" />
          </mxGeometry>
        </mxCell>
        <mxCell id="_VB6UE8N2bxIzV9tyc8Q-63" style="shape=tableRow;horizontal=0;startSize=0;swimlaneHead=0;swimlaneBody=0;fillColor=none;collapsible=0;dropTarget=0;points=[[0,0.5],[1,0.5]];portConstraint=eastwest;top=0;left=0;right=0;bottom=0;rounded=1;fillStyle=auto;strokeColor=#d79b00;strokeWidth=2;align=center;verticalAlign=middle;swimlaneFillColor=none;fontFamily=Tahoma;fontSize=14;fontColor=default;fontStyle=1;labelBackgroundColor=#FFF2CC;autosize=1;" parent="_VB6UE8N2bxIzV9tyc8Q-38" vertex="1">
          <mxGeometry y="255" width="384" height="41" as="geometry" />
        </mxCell>
        <mxCell id="_VB6UE8N2bxIzV9tyc8Q-64" style="shape=partialRectangle;connectable=0;fillColor=none;top=0;left=0;bottom=0;right=0;editable=1;overflow=hidden;whiteSpace=wrap;html=1;rounded=1;fillStyle=auto;strokeColor=#d79b00;strokeWidth=2;align=center;verticalAlign=middle;swimlaneFillColor=none;fontFamily=Tahoma;fontSize=14;fontColor=default;fontStyle=1;labelBackgroundColor=#FFF2CC;autosize=1;" parent="_VB6UE8N2bxIzV9tyc8Q-63" vertex="1">
          <mxGeometry width="48" height="41" as="geometry">
            <mxRectangle width="48" height="41" as="alternateBounds" />
          </mxGeometry>
        </mxCell>
        <mxCell id="_VB6UE8N2bxIzV9tyc8Q-65" value="NM_PARTECIPANTI_REALI int default 1" style="shape=partialRectangle;connectable=0;fillColor=none;top=0;left=0;bottom=0;right=0;align=left;spacingLeft=6;overflow=hidden;whiteSpace=wrap;html=1;rounded=1;fillStyle=auto;strokeColor=#d79b00;strokeWidth=2;verticalAlign=middle;swimlaneFillColor=none;fontFamily=Tahoma;fontSize=14;fontColor=default;fontStyle=0;labelBackgroundColor=#FFF2CC;autosize=1;" parent="_VB6UE8N2bxIzV9tyc8Q-63" vertex="1">
          <mxGeometry x="48" width="336" height="41" as="geometry">
            <mxRectangle width="336" height="41" as="alternateBounds" />
          </mxGeometry>
        </mxCell>
        <mxCell id="_VB6UE8N2bxIzV9tyc8Q-66" style="shape=tableRow;horizontal=0;startSize=0;swimlaneHead=0;swimlaneBody=0;fillColor=none;collapsible=0;dropTarget=0;points=[[0,0.5],[1,0.5]];portConstraint=eastwest;top=0;left=0;right=0;bottom=0;rounded=1;fillStyle=auto;strokeColor=#d79b00;strokeWidth=2;align=center;verticalAlign=middle;swimlaneFillColor=none;fontFamily=Tahoma;fontSize=14;fontColor=default;fontStyle=1;labelBackgroundColor=#FFF2CC;autosize=1;" parent="_VB6UE8N2bxIzV9tyc8Q-38" vertex="1">
          <mxGeometry y="296" width="384" height="41" as="geometry" />
        </mxCell>
        <mxCell id="_VB6UE8N2bxIzV9tyc8Q-67" style="shape=partialRectangle;connectable=0;fillColor=none;top=0;left=0;bottom=0;right=0;editable=1;overflow=hidden;whiteSpace=wrap;html=1;rounded=1;fillStyle=auto;strokeColor=#d79b00;strokeWidth=2;align=center;verticalAlign=middle;swimlaneFillColor=none;fontFamily=Tahoma;fontSize=14;fontColor=default;fontStyle=1;labelBackgroundColor=#FFF2CC;autosize=1;" parent="_VB6UE8N2bxIzV9tyc8Q-66" vertex="1">
          <mxGeometry width="48" height="41" as="geometry">
            <mxRectangle width="48" height="41" as="alternateBounds" />
          </mxGeometry>
        </mxCell>
        <mxCell id="_VB6UE8N2bxIzV9tyc8Q-68" value="NM_DOMANDE int not null" style="shape=partialRectangle;connectable=0;fillColor=none;top=0;left=0;bottom=0;right=0;align=left;spacingLeft=6;overflow=hidden;whiteSpace=wrap;html=1;rounded=1;fillStyle=auto;strokeColor=#d79b00;strokeWidth=2;verticalAlign=middle;swimlaneFillColor=none;fontFamily=Tahoma;fontSize=14;fontColor=default;fontStyle=0;labelBackgroundColor=#FFF2CC;autosize=1;" parent="_VB6UE8N2bxIzV9tyc8Q-66" vertex="1">
          <mxGeometry x="48" width="336" height="41" as="geometry">
            <mxRectangle width="336" height="41" as="alternateBounds" />
          </mxGeometry>
        </mxCell>
        <mxCell id="_VB6UE8N2bxIzV9tyc8Q-69" style="shape=tableRow;horizontal=0;startSize=0;swimlaneHead=0;swimlaneBody=0;fillColor=none;collapsible=0;dropTarget=0;points=[[0,0.5],[1,0.5]];portConstraint=eastwest;top=0;left=0;right=0;bottom=0;rounded=1;fillStyle=auto;strokeColor=#d79b00;strokeWidth=2;align=center;verticalAlign=middle;swimlaneFillColor=none;fontFamily=Tahoma;fontSize=14;fontColor=default;fontStyle=1;labelBackgroundColor=#FFF2CC;autosize=1;" parent="_VB6UE8N2bxIzV9tyc8Q-38" vertex="1">
          <mxGeometry y="337" width="384" height="41" as="geometry" />
        </mxCell>
        <mxCell id="_VB6UE8N2bxIzV9tyc8Q-70" style="shape=partialRectangle;connectable=0;fillColor=none;top=0;left=0;bottom=0;right=0;editable=1;overflow=hidden;whiteSpace=wrap;html=1;rounded=1;fillStyle=auto;strokeColor=#d79b00;strokeWidth=2;align=center;verticalAlign=middle;swimlaneFillColor=none;fontFamily=Tahoma;fontSize=14;fontColor=default;fontStyle=1;labelBackgroundColor=#FFF2CC;autosize=1;" parent="_VB6UE8N2bxIzV9tyc8Q-69" vertex="1">
          <mxGeometry width="48" height="41" as="geometry">
            <mxRectangle width="48" height="41" as="alternateBounds" />
          </mxGeometry>
        </mxCell>
        <mxCell id="_VB6UE8N2bxIzV9tyc8Q-71" value="NM_TIMEOUT_RISPOSTA int not null default 20" style="shape=partialRectangle;connectable=0;fillColor=none;top=0;left=0;bottom=0;right=0;align=left;spacingLeft=6;overflow=hidden;whiteSpace=wrap;html=1;rounded=1;fillStyle=auto;strokeColor=#d79b00;strokeWidth=2;verticalAlign=middle;swimlaneFillColor=none;fontFamily=Tahoma;fontSize=14;fontColor=default;fontStyle=0;labelBackgroundColor=#FFF2CC;autosize=1;" parent="_VB6UE8N2bxIzV9tyc8Q-69" vertex="1">
          <mxGeometry x="48" width="336" height="41" as="geometry">
            <mxRectangle width="336" height="41" as="alternateBounds" />
          </mxGeometry>
        </mxCell>
        <mxCell id="_VB6UE8N2bxIzV9tyc8Q-72" style="shape=tableRow;horizontal=0;startSize=0;swimlaneHead=0;swimlaneBody=0;fillColor=none;collapsible=0;dropTarget=0;points=[[0,0.5],[1,0.5]];portConstraint=eastwest;top=0;left=0;right=0;bottom=0;rounded=1;fillStyle=auto;strokeColor=#d79b00;strokeWidth=2;align=center;verticalAlign=middle;swimlaneFillColor=none;fontFamily=Tahoma;fontSize=14;fontColor=default;fontStyle=1;labelBackgroundColor=#FFF2CC;autosize=1;" parent="_VB6UE8N2bxIzV9tyc8Q-38" vertex="1">
          <mxGeometry y="378" width="384" height="41" as="geometry" />
        </mxCell>
        <mxCell id="_VB6UE8N2bxIzV9tyc8Q-73" style="shape=partialRectangle;connectable=0;fillColor=none;top=0;left=0;bottom=0;right=0;editable=1;overflow=hidden;whiteSpace=wrap;html=1;rounded=1;fillStyle=auto;strokeColor=#d79b00;strokeWidth=2;align=center;verticalAlign=middle;swimlaneFillColor=none;fontFamily=Tahoma;fontSize=14;fontColor=default;fontStyle=1;labelBackgroundColor=#FFF2CC;autosize=1;" parent="_VB6UE8N2bxIzV9tyc8Q-72" vertex="1">
          <mxGeometry width="48" height="41" as="geometry">
            <mxRectangle width="48" height="41" as="alternateBounds" />
          </mxGeometry>
        </mxCell>
        <mxCell id="_VB6UE8N2bxIzV9tyc8Q-74" value="FL_INIZIATA varchar(1) not null default &#39;N&#39;" style="shape=partialRectangle;connectable=0;fillColor=none;top=0;left=0;bottom=0;right=0;align=left;spacingLeft=6;overflow=hidden;whiteSpace=wrap;html=1;rounded=1;fillStyle=auto;strokeColor=#d79b00;strokeWidth=2;verticalAlign=middle;swimlaneFillColor=none;fontFamily=Tahoma;fontSize=14;fontColor=default;fontStyle=0;labelBackgroundColor=#FFF2CC;autosize=1;" parent="_VB6UE8N2bxIzV9tyc8Q-72" vertex="1">
          <mxGeometry x="48" width="336" height="41" as="geometry">
            <mxRectangle width="336" height="41" as="alternateBounds" />
          </mxGeometry>
        </mxCell>
        <mxCell id="_VB6UE8N2bxIzV9tyc8Q-75" style="shape=tableRow;horizontal=0;startSize=0;swimlaneHead=0;swimlaneBody=0;fillColor=none;collapsible=0;dropTarget=0;points=[[0,0.5],[1,0.5]];portConstraint=eastwest;top=0;left=0;right=0;bottom=0;rounded=1;fillStyle=auto;strokeColor=#d79b00;strokeWidth=2;align=center;verticalAlign=middle;swimlaneFillColor=none;fontFamily=Tahoma;fontSize=14;fontColor=default;fontStyle=1;labelBackgroundColor=#FFF2CC;autosize=1;" parent="_VB6UE8N2bxIzV9tyc8Q-38" vertex="1">
          <mxGeometry y="419" width="384" height="41" as="geometry" />
        </mxCell>
        <mxCell id="_VB6UE8N2bxIzV9tyc8Q-76" style="shape=partialRectangle;connectable=0;fillColor=none;top=0;left=0;bottom=0;right=0;editable=1;overflow=hidden;whiteSpace=wrap;html=1;rounded=1;fillStyle=auto;strokeColor=#d79b00;strokeWidth=2;align=center;verticalAlign=middle;swimlaneFillColor=none;fontFamily=Tahoma;fontSize=14;fontColor=default;fontStyle=1;labelBackgroundColor=#FFF2CC;autosize=1;" parent="_VB6UE8N2bxIzV9tyc8Q-75" vertex="1">
          <mxGeometry width="48" height="41" as="geometry">
            <mxRectangle width="48" height="41" as="alternateBounds" />
          </mxGeometry>
        </mxCell>
        <mxCell id="_VB6UE8N2bxIzV9tyc8Q-77" value="DT_INIZIO date" style="shape=partialRectangle;connectable=0;fillColor=none;top=0;left=0;bottom=0;right=0;align=left;spacingLeft=6;overflow=hidden;whiteSpace=wrap;html=1;rounded=1;fillStyle=auto;strokeColor=#d79b00;strokeWidth=2;verticalAlign=middle;swimlaneFillColor=none;fontFamily=Tahoma;fontSize=14;fontColor=default;fontStyle=0;labelBackgroundColor=#FFF2CC;autosize=1;" parent="_VB6UE8N2bxIzV9tyc8Q-75" vertex="1">
          <mxGeometry x="48" width="336" height="41" as="geometry">
            <mxRectangle width="336" height="41" as="alternateBounds" />
          </mxGeometry>
        </mxCell>
        <mxCell id="F6bltV3k6GI1ET0DTUvQ-1" value="STORICO_PARTITE_UTENTI_RISPOSTE" style="shape=table;startSize=44;container=1;collapsible=1;childLayout=tableLayout;fixedRows=1;rowLines=0;fontStyle=1;align=center;resizeLast=1;html=1;rounded=1;fillStyle=auto;strokeColor=#d79b00;strokeWidth=2;verticalAlign=middle;swimlaneFillColor=none;fontFamily=Tahoma;fontSize=14;fontColor=default;labelBackgroundColor=#FFF2CC;autosize=1;fillColor=#ffe6cc;" vertex="1" parent="1">
          <mxGeometry x="-900" y="332" width="348" height="149" as="geometry" />
        </mxCell>
        <mxCell id="F6bltV3k6GI1ET0DTUvQ-2" value="" style="shape=tableRow;horizontal=0;startSize=0;swimlaneHead=0;swimlaneBody=0;fillColor=none;collapsible=0;dropTarget=0;points=[[0,0.5],[1,0.5]];portConstraint=eastwest;top=0;left=0;right=0;bottom=1;rounded=1;fillStyle=auto;strokeColor=#d79b00;strokeWidth=2;align=center;verticalAlign=middle;swimlaneFillColor=none;fontFamily=Tahoma;fontSize=14;fontColor=default;fontStyle=1;labelBackgroundColor=#FFF2CC;autosize=1;" vertex="1" parent="F6bltV3k6GI1ET0DTUvQ-1">
          <mxGeometry y="44" width="348" height="33" as="geometry" />
        </mxCell>
        <mxCell id="F6bltV3k6GI1ET0DTUvQ-3" value="PK" style="shape=partialRectangle;connectable=0;fillColor=none;top=0;left=0;bottom=0;right=0;fontStyle=1;overflow=hidden;whiteSpace=wrap;html=1;rounded=1;fillStyle=auto;strokeColor=#d79b00;strokeWidth=2;align=center;verticalAlign=middle;swimlaneFillColor=none;fontFamily=Tahoma;fontSize=14;fontColor=default;labelBackgroundColor=#FFF2CC;autosize=1;" vertex="1" parent="F6bltV3k6GI1ET0DTUvQ-2">
          <mxGeometry width="30" height="33" as="geometry">
            <mxRectangle width="30" height="33" as="alternateBounds" />
          </mxGeometry>
        </mxCell>
        <mxCell id="F6bltV3k6GI1ET0DTUvQ-4" value="OID bigint not null" style="shape=partialRectangle;connectable=0;fillColor=none;top=0;left=0;bottom=0;right=0;align=left;spacingLeft=6;fontStyle=5;overflow=hidden;whiteSpace=wrap;html=1;rounded=1;fillStyle=auto;strokeColor=#d79b00;strokeWidth=2;verticalAlign=middle;swimlaneFillColor=none;fontFamily=Tahoma;fontSize=14;fontColor=default;labelBackgroundColor=#FFF2CC;autosize=1;" vertex="1" parent="F6bltV3k6GI1ET0DTUvQ-2">
          <mxGeometry x="30" width="318" height="33" as="geometry">
            <mxRectangle width="318" height="33" as="alternateBounds" />
          </mxGeometry>
        </mxCell>
        <mxCell id="F6bltV3k6GI1ET0DTUvQ-5" style="shape=tableRow;horizontal=0;startSize=0;swimlaneHead=0;swimlaneBody=0;fillColor=none;collapsible=0;dropTarget=0;points=[[0,0.5],[1,0.5]];portConstraint=eastwest;top=0;left=0;right=0;bottom=0;rounded=1;fillStyle=auto;strokeColor=#d79b00;strokeWidth=2;align=center;verticalAlign=middle;swimlaneFillColor=none;fontFamily=Tahoma;fontSize=14;fontColor=default;fontStyle=1;labelBackgroundColor=#FFF2CC;autosize=1;" vertex="1" parent="F6bltV3k6GI1ET0DTUvQ-1">
          <mxGeometry y="77" width="348" height="36" as="geometry" />
        </mxCell>
        <mxCell id="F6bltV3k6GI1ET0DTUvQ-6" style="shape=partialRectangle;connectable=0;fillColor=none;top=0;left=0;bottom=0;right=0;editable=1;overflow=hidden;whiteSpace=wrap;html=1;rounded=1;fillStyle=auto;strokeColor=#d79b00;strokeWidth=2;align=center;verticalAlign=middle;swimlaneFillColor=none;fontFamily=Tahoma;fontSize=14;fontColor=default;fontStyle=1;labelBackgroundColor=#FFF2CC;autosize=1;" vertex="1" parent="F6bltV3k6GI1ET0DTUvQ-5">
          <mxGeometry width="30" height="36" as="geometry">
            <mxRectangle width="30" height="36" as="alternateBounds" />
          </mxGeometry>
        </mxCell>
        <mxCell id="F6bltV3k6GI1ET0DTUvQ-7" value="&lt;span style=&quot;font-weight: normal;&quot;&gt;OID_STORICO_PARTITA_UTENTE bigint not null&lt;/span&gt;" style="shape=partialRectangle;connectable=0;fillColor=none;top=0;left=0;bottom=0;right=0;align=left;spacingLeft=6;overflow=hidden;whiteSpace=wrap;html=1;rounded=1;fillStyle=auto;strokeColor=#d79b00;strokeWidth=2;verticalAlign=middle;swimlaneFillColor=none;fontFamily=Tahoma;fontSize=14;fontColor=default;fontStyle=1;labelBackgroundColor=#FFF2CC;autosize=1;" vertex="1" parent="F6bltV3k6GI1ET0DTUvQ-5">
          <mxGeometry x="30" width="318" height="36" as="geometry">
            <mxRectangle width="318" height="36" as="alternateBounds" />
          </mxGeometry>
        </mxCell>
        <mxCell id="F6bltV3k6GI1ET0DTUvQ-14" style="shape=tableRow;horizontal=0;startSize=0;swimlaneHead=0;swimlaneBody=0;fillColor=none;collapsible=0;dropTarget=0;points=[[0,0.5],[1,0.5]];portConstraint=eastwest;top=0;left=0;right=0;bottom=0;rounded=1;fillStyle=auto;strokeColor=#d79b00;strokeWidth=2;align=center;verticalAlign=middle;swimlaneFillColor=none;fontFamily=Tahoma;fontSize=14;fontColor=default;fontStyle=1;labelBackgroundColor=#FFF2CC;autosize=1;" vertex="1" parent="F6bltV3k6GI1ET0DTUvQ-1">
          <mxGeometry y="113" width="348" height="36" as="geometry" />
        </mxCell>
        <mxCell id="F6bltV3k6GI1ET0DTUvQ-15" style="shape=partialRectangle;connectable=0;fillColor=none;top=0;left=0;bottom=0;right=0;editable=1;overflow=hidden;whiteSpace=wrap;html=1;rounded=1;fillStyle=auto;strokeColor=#d79b00;strokeWidth=2;align=center;verticalAlign=middle;swimlaneFillColor=none;fontFamily=Tahoma;fontSize=14;fontColor=default;fontStyle=1;labelBackgroundColor=#FFF2CC;autosize=1;" vertex="1" parent="F6bltV3k6GI1ET0DTUvQ-14">
          <mxGeometry width="30" height="36" as="geometry">
            <mxRectangle width="30" height="36" as="alternateBounds" />
          </mxGeometry>
        </mxCell>
        <mxCell id="F6bltV3k6GI1ET0DTUvQ-16" value="&lt;span style=&quot;font-weight: 400;&quot;&gt;FL_CORRETTA char(1) not null&lt;/span&gt;" style="shape=partialRectangle;connectable=0;fillColor=none;top=0;left=0;bottom=0;right=0;align=left;spacingLeft=6;overflow=hidden;whiteSpace=wrap;html=1;rounded=1;fillStyle=auto;strokeColor=#d79b00;strokeWidth=2;verticalAlign=middle;swimlaneFillColor=none;fontFamily=Tahoma;fontSize=14;fontColor=default;fontStyle=1;labelBackgroundColor=#FFF2CC;autosize=1;" vertex="1" parent="F6bltV3k6GI1ET0DTUvQ-14">
          <mxGeometry x="30" width="318" height="36" as="geometry">
            <mxRectangle width="318" height="36" as="alternateBounds" />
          </mxGeometry>
        </mxCell>
        <mxCell id="F6bltV3k6GI1ET0DTUvQ-19" value="" style="edgeStyle=elbowEdgeStyle;fontSize=12;html=1;endArrow=ERoneToMany;rounded=0;exitX=0;exitY=0.5;exitDx=0;exitDy=0;entryX=0;entryY=0.5;entryDx=0;entryDy=0;" edge="1" parent="1" source="N1hCJC-q3A-ygzUtOH68-44" target="F6bltV3k6GI1ET0DTUvQ-5">
          <mxGeometry width="100" height="100" relative="1" as="geometry">
            <mxPoint x="-978" y="72" as="sourcePoint" />
            <mxPoint x="-948" y="384" as="targetPoint" />
            <Array as="points">
              <mxPoint x="-960" y="240" />
            </Array>
          </mxGeometry>
        </mxCell>
      </root>
    </mxGraphModel>
  </diagram>
</mxfile>
